# Blender v3.0.1 OBJ File: ''
# www.blender.org
mtllib buzz_wire_low_resolution.mtl
o buzz_wire
v -4.635162 -0.295570 0.051356
v 4.598736 -0.304283 0.050536
v -4.776629 -0.249068 0.049546
v 4.858294 -0.123351 0.045956
v 4.824576 -0.215883 0.048506
v -4.941439 -0.103260 0.041565
v -5.021285 0.138605 0.048293
v 4.995159 0.101781 0.050939
v -4.970789 0.064300 0.047129
v 4.987090 -0.008551 0.043851
v -4.970598 1.696481 0.044906
v -5.048747 1.696481 0.029064
v 5.003683 1.696481 0.052674
v -4.588113 -0.259274 0.035651
v 4.550313 -0.268352 0.039866
v -4.744975 -0.204404 0.040313
v 4.676293 -0.230684 0.033747
v 4.799264 -0.154013 0.032664
v -4.853206 -0.106519 0.036410
v -4.929595 0.019580 0.035489
v -4.605148 -0.329225 0.039961
v 4.558795 -0.341754 0.031158
v 4.714088 -0.303383 0.029808
v -4.884933 -0.186644 0.029182
v 4.910033 -0.158430 0.031195
v 5.040104 0.132296 0.029266
v 4.957774 0.108464 0.036926
v 4.952505 1.696481 0.023045
v -5.002097 -0.019492 0.026414
v 5.055586 1.696481 0.003174
v -4.944648 0.110324 0.015455
v 4.893689 -0.041728 0.031601
v 4.822702 -0.247973 0.012834
v 5.015418 -0.006759 0.002645
v 4.552308 -0.250205 0.003679
v -4.735631 -0.188296 0.008536
v -4.884156 -0.038810 0.004271
v 4.946326 0.147991 -0.014245
v -4.604563 -0.347694 0.004421
v -4.788715 -0.274430 0.004362
v 4.703296 -0.317056 -0.016068
v 4.672204 -0.219793 -0.004292
v -4.788869 -0.152315 -0.023220
v -4.951850 1.696481 -0.028254
v 4.564794 -0.349409 -0.022182
v 4.920140 -0.162155 -0.004362
v -5.044512 0.092279 0.000596
v -4.552097 -0.250973 -0.008398
v -4.671978 -0.222224 -0.016828
v 4.820824 -0.124146 -0.009699
v 4.920123 0.023005 -0.026167
v -4.950317 0.140960 -0.023328
v -4.917926 -0.162723 -0.017128
v 5.043425 0.134643 -0.025746
v 4.848209 -0.221193 -0.029808
v 4.995438 -0.025013 -0.031458
v -5.025443 1.696481 -0.047236
v 4.956700 1.696481 -0.027677
v 5.005366 1.696481 -0.053395
v 4.586815 -0.258741 -0.032705
v -4.852746 -0.102152 -0.033853
v -4.558759 -0.341754 -0.031159
v -4.783126 -0.267664 -0.028684
v -4.926730 0.020230 -0.031843
v -4.968333 -0.078167 -0.031105
v 4.891824 -0.160823 -0.045822
v -5.027740 0.101095 -0.040731
v -4.589674 -0.267177 -0.041248
v 4.743900 -0.202597 -0.038104
v 4.862072 -0.110272 -0.043964
v -4.654488 -0.306138 -0.048438
v 4.663587 -0.287447 -0.051461
v -4.827220 -0.189701 -0.051890
v -4.978129 0.071782 -0.049234
v 4.983572 0.054172 -0.051755
v -4.923279 -0.079441 -0.050905
vn -0.0021 0.0283 0.9996
vn -0.1024 -0.0614 0.9928
vn 0.3536 0.2261 0.9077
vn 0.1208 -0.0724 0.9900
vn -0.1987 0.0086 0.9800
vn -0.0000 0.3971 0.9178
vn 0.0004 0.2851 0.9585
vn 0.0440 0.1722 0.9841
vn -0.1989 0.0994 0.9750
vn 0.0250 0.0014 0.9997
vn -0.3509 0.0009 0.9364
vn -0.0277 0.2500 0.9678
vn 0.1194 0.2599 0.9582
vn -0.3116 0.5111 0.8011
vn -0.4834 0.7065 0.5169
vn 0.0907 0.1396 0.9861
vn 0.6530 0.4095 0.6372
vn -0.6866 0.4040 0.6044
vn -0.0002 -0.3209 0.9471
vn 0.0002 -0.4595 0.8882
vn -0.1554 -0.4383 0.8853
vn 0.1650 -0.4010 0.9011
vn -0.3786 -0.3818 0.8432
vn -0.4607 -0.1763 0.8699
vn 0.4821 -0.0912 0.8713
vn 0.4362 -0.0033 0.8999
vn -0.3319 0.1084 0.9371
vn -0.5010 0.0059 0.8654
vn 0.1490 -0.5749 0.8045
vn 0.3559 -0.2588 0.8980
vn 0.6902 0.0052 0.7236
vn 0.6012 0.3694 0.7086
vn 0.5179 0.2654 0.8132
vn 0.7707 0.0008 0.6372
vn -0.3595 0.3106 0.8799
vn 0.5406 -0.6394 0.5468
vn 0.4386 -0.6795 0.5882
vn 0.7529 -0.4292 0.4989
vn 0.8036 -0.2464 0.5418
vn 0.0007 0.8939 0.4483
vn 0.2992 0.8127 0.5000
vn 0.5715 0.6518 0.4985
vn 0.8245 0.5014 0.2623
vn -0.0008 -0.8873 0.4611
vn -0.3353 -0.7804 0.5277
vn -0.3338 -0.8387 0.4303
vn 0.2355 -0.9452 0.2263
vn -0.4975 -0.6929 0.5220
vn -0.8069 -0.1760 0.5639
vn -0.8951 -0.0103 0.4458
vn -0.1948 0.8810 0.4311
vn -0.2610 0.9203 0.2915
vn 0.5678 0.8230 -0.0194
vn 0.7476 0.5310 0.3988
vn 0.7504 0.2588 0.6083
vn 0.9686 0.0112 0.2482
vn 0.0002 -0.9899 0.1421
vn 0.2176 -0.9624 0.1626
vn -0.7802 -0.5677 0.2626
vn 0.6635 -0.7008 0.2620
vn -0.8078 -0.5438 0.2274
vn 0.8116 -0.5104 0.2842
vn -0.0003 0.9828 0.1849
vn 0.1974 0.9213 0.3350
vn 0.4440 0.8925 -0.0795
vn -0.5110 0.8103 0.2869
vn -0.5003 0.8068 0.3142
vn -0.7635 0.6426 0.0645
vn -0.7845 0.5594 0.2678
vn -0.9199 0.3918 0.0182
vn -0.9286 0.1629 0.3335
vn 0.9895 0.0005 -0.1442
vn -0.9761 -0.0013 0.2173
vn 0.4678 -0.8711 0.1496
vn -0.6597 -0.7468 0.0842
vn 0.9816 -0.1841 0.0514
vn 0.9982 -0.0089 0.0599
vn 0.6500 -0.7551 -0.0854
vn 0.5267 -0.8254 -0.2033
vn -0.8600 -0.5101 0.0155
vn -0.9129 -0.3805 -0.1477
vn 0.8359 -0.5026 -0.2207
vn 0.0000 1.0000 0.0000
vn 0.0002 0.9736 -0.2282
vn 0.5044 0.8547 0.1227
vn 0.5717 0.6122 -0.5462
vn -0.9966 0.0060 -0.0824
vn -0.0007 -0.9862 -0.1655
vn -0.2386 -0.8601 -0.4508
vn -0.3583 -0.9009 -0.2450
vn -0.3182 -0.8678 -0.3817
vn -0.6073 -0.7519 -0.2566
vn -0.9269 0.0042 -0.3753
vn -0.2483 0.8639 -0.4381
vn 0.8441 0.5128 -0.1566
vn 0.8437 0.3713 -0.3876
vn 0.9815 0.1912 0.0076
vn 0.7123 -0.4903 -0.5022
vn 0.6540 -0.5960 -0.4658
vn -0.8575 -0.3064 -0.4133
vn -0.9564 0.0002 -0.2921
vn -0.0004 0.8970 -0.4420
vn 0.2234 0.7483 -0.6246
vn -0.3338 0.9103 -0.2448
vn -0.4448 0.6566 -0.6091
vn -0.5753 0.7107 -0.4048
vn 0.8877 -0.2530 -0.3846
vn -0.6637 0.3755 -0.6469
vn 0.1431 -0.3490 -0.9261
vn 0.7478 0.0065 -0.6639
vn 0.2860 0.8055 -0.5190
vn 0.2795 0.3871 -0.8787
vn -0.4415 0.1765 -0.8797
vn 0.1831 -0.6432 -0.7435
vn -0.2561 -0.4060 -0.8773
vn 0.3118 -0.5269 -0.7907
vn -0.4345 -0.4737 -0.7660
vn -0.4284 -0.3901 -0.8150
vn 0.0003 0.5475 -0.8368
vn 0.6179 0.3848 -0.6856
vn 0.4484 0.1497 -0.8812
vn 0.6838 -0.0016 -0.7297
vn -0.6988 0.0086 -0.7153
vn -0.4672 -0.0045 -0.8841
vn 0.0005 -0.4354 -0.9003
vn 0.0006 -0.4280 -0.9038
vn -0.3876 -0.3300 -0.8607
vn -0.4000 -0.1808 -0.8985
vn 0.3627 -0.1800 -0.9144
vn 0.5393 -0.1323 -0.8316
vn 0.4056 -0.0063 -0.9140
vn -0.1305 0.2736 -0.9530
vn 0.3748 0.2907 -0.8804
vn -0.4622 0.5473 -0.6977
vn 0.3093 0.2776 -0.9096
vn 0.2661 0.1071 -0.9580
vn -0.4853 0.3200 -0.8136
vn -0.0007 0.1826 -0.9832
vn 0.0677 0.0710 -0.9952
vn 0.2497 0.0085 -0.9683
vn -0.2049 -0.0635 -0.9767
vn -0.1711 -0.0038 -0.9852
vn 0.0033 0.0386 -0.9992
vn -0.0633 -0.0005 -0.9980
usemtl None
s off
f 5//1 4//1 2//1
f 7//2 6//2 3//2
f 3//3 9//3 7//3
f 5//4 10//4 8//4
f 11//5 12//5 7//5
f 15//6 14//6 1//6
f 2//7 15//7 1//7
f 1//8 16//8 3//8
f 8//9 4//9 5//9
f 9//10 11//10 7//10
f 13//11 27//11 8//11
f 2//12 17//12 15//12
f 14//13 16//13 1//13
f 18//14 17//14 2//14
f 4//15 18//15 2//15
f 16//16 19//16 3//16
f 19//17 9//17 3//17
f 8//18 32//18 4//18
f 21//19 2//19 1//19
f 21//20 22//20 2//20
f 1//21 3//21 21//21
f 23//22 5//22 2//22
f 6//23 24//23 3//23
f 7//24 29//24 6//24
f 10//25 26//25 8//25
f 26//26 13//26 8//26
f 8//27 27//27 32//27
f 13//28 28//28 27//28
f 22//29 23//29 2//29
f 25//30 10//30 5//30
f 26//31 30//31 13//31
f 19//32 20//32 9//32
f 20//33 31//33 9//33
f 31//34 11//34 9//34
f 4//35 32//35 18//35
f 33//36 25//36 5//36
f 23//37 33//37 5//37
f 25//38 34//38 10//38
f 34//39 26//39 10//39
f 15//40 35//40 14//40
f 14//41 36//41 16//41
f 36//42 19//42 16//42
f 37//43 20//43 19//43
f 39//44 22//44 21//44
f 3//45 40//45 21//45
f 40//46 39//46 21//46
f 22//47 41//47 23//47
f 24//48 40//48 3//48
f 7//49 47//49 29//49
f 12//50 47//50 7//50
f 42//51 35//51 15//51
f 17//52 42//52 15//52
f 36//53 43//53 19//53
f 43//54 37//54 19//54
f 37//55 31//55 20//55
f 31//56 44//56 11//56
f 39//57 45//57 22//57
f 45//58 41//58 22//58
f 6//59 53//59 24//59
f 33//60 46//60 25//60
f 29//61 53//61 6//61
f 46//62 34//62 25//62
f 35//63 48//63 14//63
f 48//64 49//64 14//64
f 49//65 36//65 14//65
f 50//66 42//66 17//66
f 18//67 50//67 17//67
f 32//68 50//68 18//68
f 51//69 50//69 32//69
f 27//70 51//70 32//70
f 38//71 51//71 27//71
f 52//72 44//72 31//72
f 28//73 38//73 27//73
f 41//74 33//74 23//74
f 24//75 53//75 40//75
f 34//76 54//76 26//76
f 54//77 30//77 26//77
f 55//78 46//78 33//78
f 41//79 55//79 33//79
f 29//80 65//80 53//80
f 47//81 65//81 29//81
f 46//82 56//82 34//82
f 57//83 12//83 11//83
f 44//83 57//83 11//83
f 58//83 28//83 13//83
f 59//83 58//83 13//83
f 30//83 59//83 13//83
f 35//84 60//84 48//84
f 49//85 43//85 36//85
f 43//86 61//86 37//86
f 28//87 58//87 38//87
f 62//88 45//88 39//88
f 71//89 62//89 39//89
f 40//90 63//90 39//90
f 63//91 71//91 39//91
f 53//92 63//92 40//92
f 12//93 67//93 47//93
f 42//94 60//94 35//94
f 61//95 64//95 37//95
f 64//96 31//96 37//96
f 64//97 52//97 31//97
f 66//98 56//98 46//98
f 55//99 66//99 46//99
f 47//100 67//100 65//100
f 12//101 57//101 67//101
f 60//102 68//102 48//102
f 68//103 49//103 48//103
f 42//104 69//104 60//104
f 50//105 69//105 42//105
f 70//106 69//106 50//106
f 56//107 54//107 34//107
f 51//108 70//108 50//108
f 41//109 66//109 55//109
f 54//110 59//110 30//110
f 68//111 73//111 49//111
f 73//112 43//112 49//112
f 38//113 75//113 51//113
f 45//114 72//114 41//114
f 73//115 71//115 63//115
f 72//116 66//116 41//116
f 53//117 73//117 63//117
f 65//118 73//118 53//118
f 60//119 72//119 68//119
f 61//120 74//120 64//120
f 74//121 52//121 64//121
f 74//122 44//122 52//122
f 59//123 75//123 38//123
f 58//124 59//124 38//124
f 71//125 45//125 62//125
f 71//126 72//126 45//126
f 65//127 76//127 73//127
f 67//128 76//128 65//128
f 66//129 75//129 56//129
f 75//130 54//130 56//130
f 75//131 59//131 54//131
f 69//132 72//132 60//132
f 73//133 61//133 43//133
f 70//134 72//134 69//134
f 73//135 76//135 61//135
f 76//136 74//136 61//136
f 51//137 75//137 70//137
f 72//138 71//138 68//138
f 71//139 73//139 68//139
f 74//140 57//140 44//140
f 74//141 76//141 67//141
f 57//142 74//142 67//142
f 70//143 66//143 72//143
f 75//144 66//144 70//144
