# Blender v3.0.1 OBJ File: ''
# www.blender.org
mtllib buzz_wire_low_resolution.mtl
o buzz_wire
v -0.196607 0.232696 -0.005002
v -0.198729 0.232696 0.005892
v -0.205387 0.232696 -0.001046
v 0.194588 0.232696 -0.001181
v 0.203307 0.232696 -0.004895
v 0.201519 0.232696 0.005826
v -0.197890 -0.083022 0.005312
v -0.194682 -0.073912 0.001070
v -0.195078 -0.076619 -0.002674
v -0.198033 -0.077828 -0.004931
v -0.204763 -0.076338 0.001578
v -0.159470 -0.111436 -0.000264
v -0.159589 -0.113941 0.004306
v -0.156229 -0.120018 0.004494
v -0.161588 -0.121712 -0.000888
v -0.158834 -0.119634 -0.004676
v -0.160123 -0.113488 -0.004048
v -0.182053 -0.108802 0.004856
v -0.177393 -0.115199 0.001961
v -0.177683 -0.102838 -0.000302
v -0.177728 -0.105469 0.004212
v -0.181537 -0.109551 -0.004938
v -0.179013 -0.104481 -0.004184
v -0.188877 -0.093094 0.003382
v -0.191662 -0.102682 0.003260
v -0.191721 -0.101375 -0.003827
v -0.187771 -0.091554 -0.001690
v -0.199159 -0.092837 0.000092
v -0.202309 -0.079224 -0.004220
v 0.161374 -0.119482 0.004627
v 0.156899 -0.112162 -0.002314
v 0.161870 -0.117613 -0.005219
v 0.157364 -0.122106 -0.001183
v 0.195490 -0.071276 0.003132
v 0.199641 -0.080851 0.005206
v 0.204017 -0.075655 0.002645
v 0.204697 -0.072862 -0.002015
v 0.199455 -0.084837 -0.005006
v 0.195434 -0.075191 -0.003321
v 0.191606 -0.087720 0.003006
v 0.201170 -0.086776 -0.002923
v 0.197220 -0.096574 0.001164
v 0.188013 -0.092413 -0.002146
v 0.188718 -0.102930 -0.004583
v 0.182880 -0.108916 0.004611
v 0.177666 -0.103380 0.002271
v 0.162950 -0.112671 0.003728
v 0.186498 -0.108994 -0.000909
v 0.171082 -0.108401 -0.003298
v 0.174316 -0.116835 -0.001791
vn -0.0000 1.0000 -0.0000
vn -0.7215 0.0044 0.6924
vn -0.4795 -0.0029 0.8775
vn 0.7966 0.0010 0.6046
vn 0.9815 0.0099 0.1913
vn 0.9941 0.0041 -0.1081
vn 0.6077 -0.0030 -0.7941
vn -0.1640 0.0005 -0.9865
vn -0.4108 0.0052 -0.9117
vn -0.9218 -0.0052 -0.3875
vn 0.0361 0.0509 0.9981
vn 0.0622 0.1143 -0.9915
vn -0.2187 -0.5301 0.8192
vn -0.2486 -0.8252 0.5072
vn 0.3800 0.8069 0.4522
vn 0.3715 0.8006 0.4702
vn 0.0525 0.1233 0.9910
vn -0.4095 -0.8110 -0.4179
vn -0.3121 -0.7189 -0.6211
vn 0.0626 0.1164 -0.9912
vn 0.3830 0.7963 -0.4683
vn 0.3727 0.7873 -0.4911
vn 0.6757 0.6340 0.3761
vn -0.5009 -0.6323 0.5910
vn -0.6562 -0.7272 -0.2012
vn -0.6292 -0.7652 -0.1360
vn 0.6783 0.6489 0.3448
vn 0.7434 0.6686 -0.0176
vn 0.1095 0.0497 0.9927
vn -0.2748 -0.1855 0.9434
vn -0.0369 0.1651 -0.9856
vn 0.6859 0.5554 -0.4701
vn -0.7737 -0.6241 -0.1087
vn 0.8440 0.4337 0.3156
vn -0.6543 -0.2805 0.7023
vn -0.6689 -0.2889 0.6849
vn -0.7212 -0.3553 -0.5947
vn -0.1952 -0.1106 -0.9745
vn 0.6745 0.3509 -0.6495
vn 0.5380 0.2094 -0.8165
vn 0.9284 0.2475 -0.2772
vn 0.4526 0.2405 0.8587
vn -0.9243 -0.2918 -0.2459
vn -0.1403 -0.0727 -0.9874
vn -0.0009 -0.9536 0.3010
vn 0.0014 -0.9117 0.4108
vn -0.0005 0.0307 0.9995
vn 0.0013 0.1305 0.9914
vn -0.0026 0.8769 0.4807
vn 0.0028 0.9967 0.0812
vn -0.0011 0.8792 -0.4765
vn 0.0028 0.4723 -0.8814
vn -0.0023 0.1011 -0.9949
vn 0.0030 -0.6700 -0.7424
vn -0.0015 -0.8763 -0.4817
vn -0.9647 0.2288 -0.1305
vn -0.3169 0.0676 0.9461
vn 0.9694 -0.2453 -0.0058
vn 0.7014 -0.1321 -0.7004
vn -0.8820 0.3974 0.2532
vn 0.7081 -0.2761 0.6500
vn 0.9371 -0.3151 0.1501
vn 0.5448 -0.3412 -0.7661
vn 0.4500 -0.2867 0.8458
vn 0.7093 -0.4952 -0.5017
vn -0.2750 0.0530 -0.9600
vn -0.7420 0.6646 -0.0879
vn -0.6025 0.5074 0.6161
vn -0.3765 0.4711 -0.7977
vn -0.0453 0.0059 0.9990
vn 0.6457 -0.6296 0.4321
vn 0.7097 -0.5365 -0.4565
vn 0.0538 -0.0552 -0.9970
vn -0.5921 0.6817 -0.4297
vn -0.5515 0.6238 -0.5538
vn -0.6830 0.7113 0.1662
vn -0.0713 0.1467 0.9866
vn 0.4929 -0.8033 0.3344
vn 0.4225 -0.5778 -0.6982
vn 0.2635 -0.4448 -0.8560
vn -0.2571 0.8490 -0.4616
vn -0.4289 0.7568 0.4933
vn 0.3915 -0.7962 0.4612
vn 0.2970 -0.9303 0.2152
vn 0.2155 -0.7633 -0.6090
vn -0.1567 0.3494 -0.9238
vn 0.9864 0.0063 0.1644
vn 0.5092 -0.0048 0.8606
vn -0.4454 0.0009 0.8954
vn -0.7109 0.0079 0.7033
vn -0.9999 -0.0028 0.0104
vn -0.3764 0.0049 -0.9264
vn -0.3919 0.0053 -0.9200
vn 0.5056 -0.0058 -0.8628
vn 0.9890 0.0059 0.1477
usemtl None
s off
f 3//1 2//1 1//1
f 4//1 6//1 5//1
f 3//2 11//2 2//2
f 2//3 11//3 7//3
f 2//4 7//4 8//4
f 2//5 8//5 1//5
f 8//6 9//6 1//6
f 1//7 9//7 10//7
f 10//8 29//8 1//8
f 1//9 29//9 3//9
f 3//10 29//10 11//10
f 14//11 13//11 18//11
f 17//12 16//12 22//12
f 14//13 18//13 19//13
f 14//14 19//14 15//14
f 12//15 20//15 13//15
f 13//16 20//16 21//16
f 13//17 21//17 18//17
f 15//18 19//18 22//18
f 15//19 22//19 16//19
f 22//20 23//20 17//20
f 17//21 23//21 20//21
f 17//22 20//22 12//22
f 21//23 20//23 24//23
f 19//24 18//24 25//24
f 19//25 25//25 22//25
f 22//26 25//26 26//26
f 20//27 27//27 24//27
f 21//28 24//28 7//28
f 21//29 7//29 18//29
f 18//30 7//30 25//30
f 23//31 22//31 27//31
f 23//32 27//32 20//32
f 25//33 28//33 26//33
f 27//34 9//34 24//34
f 25//35 7//35 11//35
f 25//36 11//36 28//36
f 28//37 29//37 26//37
f 26//38 29//38 22//38
f 22//39 10//39 27//39
f 27//40 10//40 9//40
f 9//41 8//41 24//41
f 24//42 8//42 7//42
f 28//43 11//43 29//43
f 22//44 29//44 10//44
f 15//45 33//45 14//45
f 14//46 33//46 30//46
f 14//47 30//47 13//47
f 13//48 30//48 47//48
f 13//49 47//49 12//49
f 12//50 47//50 31//50
f 12//51 31//51 17//51
f 17//52 31//52 32//52
f 17//53 32//53 16//53
f 16//54 32//54 33//54
f 16//55 33//55 15//55
f 34//56 39//56 40//56
f 34//57 40//57 35//57
f 37//58 36//58 41//58
f 37//59 41//59 38//59
f 39//60 43//60 40//60
f 36//61 35//61 42//61
f 36//62 42//62 41//62
f 41//63 44//63 38//63
f 35//64 45//64 42//64
f 41//65 42//65 44//65
f 39//66 38//66 43//66
f 43//67 46//67 40//67
f 40//68 46//68 35//68
f 35//69 46//69 47//69
f 35//70 47//70 45//70
f 42//71 45//71 48//71
f 42//72 48//72 44//72
f 38//73 44//73 32//73
f 38//74 32//74 49//74
f 38//75 49//75 43//75
f 43//76 49//76 46//76
f 45//77 47//77 30//77
f 48//78 45//78 50//78
f 48//79 50//79 44//79
f 44//80 50//80 32//80
f 49//81 31//81 46//81
f 46//82 31//82 47//82
f 45//83 30//83 50//83
f 50//84 30//84 33//84
f 50//85 33//85 32//85
f 49//86 32//86 31//86
f 5//87 6//87 36//87
f 35//88 36//88 6//88
f 34//89 35//89 6//89
f 6//90 4//90 34//90
f 4//91 39//91 34//91
f 38//92 39//92 5//92
f 5//93 39//93 4//93
f 5//94 37//94 38//94
f 36//95 37//95 5//95
