# Blender v3.0.1 OBJ File: ''
# www.blender.org
mtllib long_wire_maze.mtl
o Plane
v -0.336538 -0.000001 5.000000
v -5.000000 0.499999 5.000000
v -5.000000 -0.000001 5.000000
v -5.000000 0.000000 -1.923077
v -4.230770 -0.000001 4.230770
v -4.230770 0.499999 4.230770
v 1.153846 -0.000001 4.230769
v 4.230770 -0.000000 1.153846
v 4.230770 0.500000 1.153846
v 4.230770 0.000001 -4.230770
v -1.923077 -0.000000 1.153846
v -1.923077 0.500000 1.153846
v 5.000000 0.499999 4.230770
v 5.000000 -0.000001 4.230770
v 5.000000 -0.000001 5.000000
v 0.000000 0.499999 5.000000
v 5.000000 -0.000000 1.923077
v -1.923077 0.500000 1.923077
v -1.923077 -0.000000 1.923077
v 1.923077 0.000000 -1.153846
v 1.923077 0.500000 -1.153846
v -4.230770 0.000000 -1.153846
v 4.230770 0.500001 -4.230770
v 0.000000 0.000001 -4.230769
v 1.923077 0.500000 -1.923077
v 1.923077 0.000000 -1.923077
v -5.000000 0.500001 -4.230770
v -5.000000 0.000001 -4.230770
v 1.250000 0.000001 -5.000000
v 5.000000 0.500001 -5.000000
v 5.000000 0.000001 -5.000000
v -5.000000 0.000001 -5.000000
v -5.000000 0.500000 -1.923077
v -4.230770 0.500000 -1.153846
v -5.000000 0.500001 -5.000000
v 5.000000 0.499999 5.000000
v 5.000000 0.500000 1.923077
vt 0.000000 0.000000
vt 0.000000 0.000000
vt 0.000000 0.000000
vt 0.000000 0.000000
vt 0.076923 0.076923
vt 0.076923 0.076923
vt 0.615385 0.076923
vt 0.923077 0.384615
vt 0.923077 0.384615
vt 0.923077 0.923077
vt 0.307692 0.384615
vt 0.307692 0.384615
vt 1.000000 0.076923
vt 1.000000 0.076923
vt 0.000000 0.000000
vt 0.000000 0.000000
vt 1.000000 0.307692
vt 0.307692 0.307692
vt 0.307692 0.307692
vt 0.692308 0.615385
vt 0.692308 0.615385
vt 0.076923 0.615385
vt 0.923077 0.923077
vt 0.500000 0.923077
vt 0.000000 0.692308
vt 0.692308 0.692308
vt 0.692308 0.692308
vt 0.000000 0.923077
vt 0.000000 0.923077
vt 0.000000 0.000000
vt 0.000000 0.000000
vt 0.000000 0.000000
vt 0.000000 0.000000
vt 0.000000 0.000000
vt 0.076923 0.615385
vt 0.000000 0.000000
vt 0.000000 0.000000
vt 0.000000 0.000000
vt 0.000000 0.000000
vt 0.000000 0.000000
vt 0.000000 0.000000
vt 0.000000 0.692308
vt 0.000000 0.000000
vt 0.000000 0.000000
vt 1.000000 0.307692
vt 1.000000 1.000000
vt 0.500000 0.000000
vt 1.000000 0.000000
vt 0.000000 1.000000
vn 0.0000 0.0000 1.0000
vn -1.0000 0.0000 0.0000
vn -0.0000 0.0000 -1.0000
vn 1.0000 0.0000 0.0000
vn 0.0000 1.0000 0.0000
usemtl Material.001
s 1
f 1/1/1 2/2/1 3/3/1
f 3/3/2 2/2/2 4/4/2
f 5/5/3 6/6/3 7/7/3
f 8/8/2 9/9/2 10/10/2
f 9/9/3 8/8/3 11/11/3 12/12/3
f 7/7/3 13/13/3 14/14/3
f 15/15/1 16/16/1 1/1/1
f 17/17/1 18/18/1 19/19/1
f 20/20/1 21/21/1 22/22/1
f 10/10/1 23/23/1 24/24/1
f 4/25/3 25/26/3 26/27/3
f 24/24/1 27/28/1 28/29/1
f 29/30/3 30/31/3 31/32/3
f 32/33/3 30/31/3 29/30/3
f 1/1/1 16/16/1 2/2/1
f 21/21/4 20/20/4 26/27/4 25/26/4
f 4/4/2 2/2/2 33/34/2
f 6/6/4 5/5/4 22/22/4 34/35/4
f 35/36/2 32/33/2 28/37/2 27/38/2
f 24/24/1 23/23/1 27/28/1
f 36/39/4 15/15/4 14/40/4 13/41/4
f 10/10/2 9/9/2 23/23/2
f 32/33/3 35/36/3 30/31/3
f 4/25/3 33/42/3 25/26/3
f 15/15/1 36/39/1 16/16/1
f 37/43/4 17/44/4 31/32/4 30/31/4
f 12/12/2 11/11/2 19/19/2 18/18/2
f 17/17/1 37/45/1 18/18/1
f 22/22/1 21/21/1 34/35/1
f 7/7/3 6/6/3 13/13/3
usemtl Material.002
f 23/23/5 30/46/5 27/28/5
f 2/2/5 6/6/5 33/42/5
f 16/47/5 6/6/5 2/2/5
f 21/21/5 33/42/5 34/35/5
f 37/45/5 12/12/5 18/18/5
f 36/48/5 13/13/5 16/47/5
f 30/46/5 23/23/5 9/9/5
f 27/28/5 30/46/5 35/49/5
f 33/42/5 6/6/5 34/35/5
f 21/21/5 25/26/5 33/42/5
f 16/47/5 13/13/5 6/6/5
f 37/45/5 9/9/5 12/12/5
f 37/45/5 30/46/5 9/9/5
