# Blender v3.0.1 OBJ File: 'blender_made_long_wire.blend'
# www.blender.org
mtllib long_buzz_wire.mtl
o Cylinder_Cylinder.001
v 0.000000 0.144117 -0.497242
v 0.000000 -0.005883 -0.497242
v 0.001500 0.144117 -0.497644
v 0.001500 -0.005883 -0.497644
v 0.002598 0.144117 -0.498742
v 0.002598 -0.005883 -0.498742
v 0.003000 0.144117 -0.500242
v 0.003000 -0.005883 -0.500242
v 0.002598 0.144117 -0.501742
v 0.002598 -0.005883 -0.501742
v 0.001500 0.144117 -0.502841
v 0.001500 -0.005883 -0.502841
v 0.000000 0.144117 -0.503242
v 0.000000 -0.005883 -0.503242
v -0.001500 0.144117 -0.502841
v -0.001500 -0.005883 -0.502841
v -0.002598 0.144117 -0.501742
v -0.002598 -0.005883 -0.501742
v -0.003000 0.144117 -0.500242
v -0.003000 -0.005883 -0.500242
v -0.002598 0.144117 -0.498742
v -0.002598 -0.005883 -0.498742
v -0.001500 0.144117 -0.497644
v -0.001500 -0.005883 -0.497644
v -0.000000 0.144117 0.502758
v -0.000000 -0.005883 0.502758
v 0.001500 0.144117 0.502356
v 0.001500 -0.005883 0.502356
v 0.002598 0.144117 0.501258
v 0.002598 -0.005883 0.501258
v 0.003000 0.144117 0.499758
v 0.003000 -0.005883 0.499758
v 0.002598 0.144117 0.498258
v 0.002598 -0.005883 0.498258
v 0.001500 0.144117 0.497159
v 0.001500 -0.005883 0.497160
v -0.000000 0.144117 0.496758
v -0.000000 -0.005883 0.496758
v -0.001500 0.144117 0.497159
v -0.001500 -0.005883 0.497160
v -0.002598 0.144117 0.498258
v -0.002598 -0.005883 0.498258
v -0.003000 0.144117 0.499758
v -0.003000 -0.005883 0.499758
v -0.002598 0.144117 0.501258
v -0.002598 -0.005883 0.501258
v -0.001500 0.144117 0.502356
v -0.001500 -0.005883 0.502356
v 0.000000 -0.017883 -0.473094
v 0.000000 -0.017883 -0.323094
v 0.001500 -0.018285 -0.473094
v 0.001500 -0.018285 -0.323094
v 0.002598 -0.019383 -0.473094
v 0.002598 -0.019383 -0.323094
v 0.003000 -0.020883 -0.473094
v 0.003000 -0.020883 -0.323094
v 0.002598 -0.022383 -0.473094
v 0.002598 -0.022383 -0.323094
v 0.001500 -0.023481 -0.473094
v 0.001500 -0.023481 -0.323094
v 0.000000 -0.023883 -0.473094
v 0.000000 -0.023883 -0.323094
v -0.001500 -0.023481 -0.473094
v -0.001500 -0.023481 -0.323094
v -0.002598 -0.022383 -0.473094
v -0.002598 -0.022383 -0.323094
v -0.003000 -0.020883 -0.473094
v -0.003000 -0.020883 -0.323094
v -0.002598 -0.019383 -0.473094
v -0.002598 -0.019383 -0.323094
v -0.001500 -0.018285 -0.473094
v -0.001500 -0.018285 -0.323094
v 0.000000 -0.017883 -0.223094
v 0.001500 -0.018285 -0.223094
v 0.002598 -0.019383 -0.223094
v 0.003000 -0.020883 -0.223094
v 0.002598 -0.022383 -0.223094
v 0.001500 -0.023481 -0.223094
v 0.000000 -0.023883 -0.223094
v -0.001500 -0.023481 -0.223094
v -0.002598 -0.022383 -0.223094
v -0.003000 -0.020883 -0.223094
v -0.002598 -0.019383 -0.223094
v -0.001500 -0.018285 -0.223094
v 0.000000 -0.017884 0.476906
v 0.001500 -0.018286 0.476906
v 0.002598 -0.019385 0.476906
v 0.003000 -0.020884 0.476906
v 0.002598 -0.022384 0.476906
v 0.001500 -0.023483 0.476906
v 0.000000 -0.023885 0.476906
v -0.001500 -0.023483 0.476906
v -0.002598 -0.022384 0.476906
v -0.003000 -0.020884 0.476906
v -0.002598 -0.019385 0.476906
v -0.001500 -0.018286 0.476906
v 0.000000 -0.008677 -0.494798
v 0.000000 -0.013036 -0.487633
v 0.000000 -0.016546 -0.479066
v -0.001500 -0.008967 -0.495076
v -0.001500 -0.013394 -0.487816
v -0.001500 -0.016930 -0.479185
v -0.002598 -0.009761 -0.495835
v -0.002598 -0.014373 -0.488314
v -0.002598 -0.017979 -0.479509
v -0.003000 -0.010844 -0.496873
v -0.003000 -0.015710 -0.488994
v -0.003000 -0.019412 -0.479953
v -0.002598 -0.011927 -0.497910
v -0.002598 -0.017046 -0.489675
v -0.002598 -0.020845 -0.480396
v -0.001500 -0.012721 -0.498670
v -0.001500 -0.018025 -0.490173
v -0.001500 -0.021894 -0.480720
v -0.000000 -0.013011 -0.498948
v -0.000000 -0.018383 -0.490356
v -0.000000 -0.022278 -0.480839
v 0.001500 -0.012721 -0.498670
v 0.001500 -0.018025 -0.490173
v 0.001500 -0.021894 -0.480720
v 0.002598 -0.011927 -0.497910
v 0.002598 -0.017046 -0.489675
v 0.002598 -0.020845 -0.480396
v 0.003000 -0.010844 -0.496873
v 0.003000 -0.015710 -0.488994
v 0.003000 -0.019412 -0.479953
v 0.002598 -0.009761 -0.495835
v 0.002598 -0.014373 -0.488314
v 0.002598 -0.017979 -0.479509
v 0.001500 -0.016930 -0.479185
v 0.001500 -0.013394 -0.487816
v 0.001500 -0.008967 -0.495076
v -0.000000 -0.012548 0.499179
v -0.000000 -0.017982 0.491966
v -0.000000 -0.022110 0.483859
v -0.001500 -0.012278 0.498881
v -0.001500 -0.017641 0.491754
v -0.001500 -0.021735 0.483715
v -0.002598 -0.011541 0.498067
v -0.002598 -0.016708 0.491174
v -0.002598 -0.020710 0.483321
v -0.003000 -0.010534 0.496956
v -0.003000 -0.015434 0.490382
v -0.003000 -0.019309 0.482783
v -0.002598 -0.009526 0.495844
v -0.002598 -0.014160 0.489590
v -0.002598 -0.017909 0.482245
v -0.001500 -0.008789 0.495031
v -0.001500 -0.013227 0.489011
v -0.001500 -0.016884 0.481852
v -0.000000 -0.008519 0.494733
v -0.000000 -0.012886 0.488799
v -0.000000 -0.016509 0.481708
v 0.001500 -0.008789 0.495031
v 0.001500 -0.013227 0.489011
v 0.001500 -0.016884 0.481852
v 0.002598 -0.009526 0.495844
v 0.002598 -0.014160 0.489590
v 0.002598 -0.017909 0.482245
v 0.003000 -0.010533 0.496956
v 0.003000 -0.015434 0.490382
v 0.003000 -0.019309 0.482783
v 0.002598 -0.011541 0.498067
v 0.002598 -0.016708 0.491174
v 0.002598 -0.020710 0.483321
v 0.001500 -0.021735 0.483715
v 0.001500 -0.017641 0.491754
v 0.001500 -0.012278 0.498881
vt 1.000000 0.500000
vt 1.000000 1.000000
vt 0.916667 1.000000
vt 0.916667 0.500000
vt 0.833333 1.000000
vt 0.833333 0.500000
vt 0.750000 1.000000
vt 0.750000 0.500000
vt 0.666667 1.000000
vt 0.666667 0.500000
vt 0.583333 1.000000
vt 0.583333 0.500000
vt 0.500000 1.000000
vt 0.500000 0.500000
vt 0.416667 1.000000
vt 0.416667 0.500000
vt 0.333333 1.000000
vt 0.333333 0.500000
vt 0.250000 1.000000
vt 0.250000 0.500000
vt 0.166667 1.000000
vt 0.166667 0.500000
vt 0.833333 0.500000
vt 0.750000 0.500000
vt 0.750000 0.625000
vt 0.833333 0.625000
vt 0.083333 1.000000
vt 0.083333 0.500000
vt 0.000000 1.000000
vt 0.000000 0.500000
vt 0.750000 0.490000
vt 0.870000 0.457846
vt 0.957846 0.370000
vt 0.990000 0.250000
vt 0.957846 0.130000
vt 0.870000 0.042154
vt 0.750000 0.010000
vt 0.630000 0.042154
vt 0.542154 0.130000
vt 0.510000 0.250000
vt 0.542154 0.370000
vt 0.630000 0.457846
vt 1.000000 0.500000
vt 1.000000 1.000000
vt 0.916667 1.000000
vt 0.916667 0.500000
vt 0.833333 1.000000
vt 0.833333 0.500000
vt 0.750000 1.000000
vt 0.750000 0.500000
vt 0.666667 1.000000
vt 0.666667 0.500000
vt 0.583333 1.000000
vt 0.583333 0.500000
vt 0.500000 1.000000
vt 0.500000 0.500000
vt 0.416667 1.000000
vt 0.416667 0.500000
vt 0.333333 1.000000
vt 0.333333 0.500000
vt 0.250000 1.000000
vt 0.250000 0.500000
vt 0.166667 1.000000
vt 0.166667 0.500000
vt 0.666667 1.000000
vt 0.750000 1.000000
vt 0.750000 1.000000
vt 0.708333 1.000000
vt 0.083333 1.000000
vt 0.083333 0.500000
vt 0.000000 1.000000
vt 0.000000 0.500000
vt 0.750000 0.490000
vt 0.870000 0.457846
vt 0.957846 0.370000
vt 0.990000 0.250000
vt 0.957846 0.130000
vt 0.870000 0.042154
vt 0.750000 0.010000
vt 0.630000 0.042154
vt 0.542154 0.130000
vt 0.510000 0.250000
vt 0.542154 0.370000
vt 0.630000 0.457846
vt 1.000000 0.500000
vt 1.000000 1.000000
vt 0.916667 1.000000
vt 0.916667 0.500000
vt 0.833333 1.000000
vt 0.750000 1.000000
vt 0.666667 1.000000
vt 0.666667 0.500000
vt 0.583333 1.000000
vt 0.583333 0.500000
vt 0.500000 1.000000
vt 0.500000 0.500000
vt 0.416667 1.000000
vt 0.416667 0.500000
vt 0.333333 1.000000
vt 0.333333 0.500000
vt 0.250000 1.000000
vt 0.250000 0.500000
vt 0.166667 1.000000
vt 0.166667 0.500000
vt 0.833333 1.000000
vt 0.750000 1.000000
vt 0.083333 1.000000
vt 0.083333 0.500000
vt 0.000000 1.000000
vt 0.000000 0.500000
vt 0.916667 0.625000
vt 0.833333 1.000000
vt 0.166667 1.000000
vt 0.083333 1.000000
vt 0.916667 1.000000
vt 0.250000 1.000000
vt 0.333333 1.000000
vt 0.416667 1.000000
vt 0.500000 1.000000
vt 0.583333 1.000000
vt 0.666667 1.000000
vt 0.000000 1.000000
vt 1.000000 1.000000
vt 0.583333 1.000000
vt 0.666667 1.000000
vt 0.250000 1.000000
vt 0.166667 1.000000
vt 0.500000 1.000000
vt 0.416667 1.000000
vt 0.083333 1.000000
vt 1.000000 1.000000
vt 0.916667 1.000000
vt 0.333333 1.000000
vt 0.000000 1.000000
vt 0.666667 0.625000
vt 0.583333 0.625000
vt 0.500000 0.625000
vt 0.416667 0.625000
vt 0.333333 0.625000
vt 0.250000 0.625000
vt 0.166667 0.625000
vt 0.083333 0.625000
vt 0.000000 0.625000
vt 1.000000 0.625000
vt 0.000000 0.750000
vt 0.083333 0.750000
vt 0.000000 0.875000
vt 0.083333 0.875000
vt 0.166667 0.750000
vt 0.166667 0.875000
vt 0.250000 0.750000
vt 0.250000 0.875000
vt 0.333333 0.750000
vt 0.333333 0.875000
vt 0.416667 0.750000
vt 0.416667 0.875000
vt 0.500000 0.750000
vt 0.500000 0.875000
vt 0.583333 0.750000
vt 0.583333 0.875000
vt 0.666667 0.750000
vt 0.666667 0.875000
vt 0.750000 0.750000
vt 0.750000 0.875000
vt 0.833333 0.750000
vt 0.833333 0.875000
vt 0.916667 0.750000
vt 0.916667 0.875000
vt 1.000000 0.750000
vt 1.000000 0.875000
vt 0.791667 1.000000
vt 0.833333 1.000000
vt 0.875000 1.000000
vt 0.166667 1.000000
vt 0.125000 1.000000
vt 0.208333 1.000000
vt 0.250000 1.000000
vt 0.291667 1.000000
vt 0.333333 1.000000
vt 0.375000 1.000000
vt 0.625000 1.000000
vt 0.250000 1.000000
vt 0.250000 1.000000
vt 0.125000 1.000000
vt 0.166667 1.000000
vt 0.250000 1.000000
vt 0.208333 1.000000
vt 0.250000 1.000000
vt 0.250000 1.000000
vt 0.250000 1.000000
vt 0.291667 1.000000
vt 0.250000 1.000000
vt 0.333333 1.000000
vt 0.250000 1.000000
vt 0.375000 1.000000
vt 0.750000 1.000000
vt 0.750000 1.000000
vt 0.625000 1.000000
vt 0.666667 1.000000
vt 0.750000 1.000000
vt 0.708333 1.000000
vt 0.750000 1.000000
vt 0.750000 1.000000
vt 0.750000 1.000000
vt 0.791667 1.000000
vt 0.750000 1.000000
vt 0.833333 1.000000
vt 0.750000 1.000000
vt 0.875000 1.000000
vn 0.2588 0.0000 0.9659
vn 0.7071 0.0000 0.7071
vn 0.9659 0.0000 0.2588
vn 0.9659 0.0000 -0.2588
vn 0.7071 0.0000 -0.7071
vn 0.2589 0.0000 -0.9659
vn -0.2589 0.0000 -0.9659
vn -0.7071 0.0000 -0.7071
vn -0.9659 0.0000 -0.2588
vn -0.9659 0.0000 0.2588
vn 0.9651 0.2561 0.0555
vn -0.7071 0.0000 0.7071
vn -0.2588 0.0000 0.9659
vn 0.0000 1.0000 -0.0000
vn 0.2589 0.0000 0.9659
vn 0.2588 -0.0000 -0.9659
vn -0.2588 -0.0000 -0.9659
vn 0.9646 -0.2549 0.0674
vn -0.2589 0.0000 0.9659
vn 0.2588 0.9659 -0.0000
vn 0.7071 0.7071 -0.0000
vn 0.9659 0.2588 -0.0000
vn 0.9659 -0.2588 0.0000
vn 0.7071 -0.7071 0.0000
vn 0.2588 -0.9659 0.0000
vn -0.2588 -0.9659 0.0000
vn -0.7071 -0.7071 0.0000
vn -0.9659 -0.2588 0.0000
vn -0.9659 0.2588 -0.0000
vn -0.7071 0.7071 -0.0000
vn -0.2588 0.9659 -0.0000
vn 0.7023 0.6952 0.1534
vn 0.7002 -0.6911 0.1789
vn 0.9651 -0.2563 -0.0545
vn 0.7025 -0.6965 -0.1458
vn 0.2558 -0.9465 -0.1966
vn -0.2558 -0.9465 -0.1966
vn -0.7025 -0.6965 -0.1458
vn -0.9651 -0.2563 -0.0545
vn -0.9651 0.2561 0.0555
vn -0.7023 0.6952 0.1534
vn -0.2555 0.9436 0.2106
vn 0.2555 0.9436 0.2106
vn -0.2579 0.8940 0.3663
vn -0.2556 0.8257 0.5029
vn -0.2290 0.6316 0.7407
vn -0.7058 0.6555 0.2685
vn -0.7025 0.6072 0.3713
vn -0.6640 0.4622 0.5877
vn -0.9657 0.2403 0.0984
vn -0.9651 0.2231 0.1373
vn -0.9583 0.1654 0.2330
vn -0.9657 -0.2403 -0.0984
vn -0.9651 -0.2226 -0.1379
vn -0.9589 -0.1554 -0.2374
vn -0.7058 -0.6556 -0.2684
vn -0.7026 -0.6039 -0.3762
vn -0.6727 -0.3905 -0.6285
vn -0.2579 -0.8942 -0.3660
vn -0.2558 -0.8199 -0.5122
vn -0.2370 -0.5036 -0.8308
vn 0.2579 -0.8942 -0.3660
vn 0.2558 -0.8199 -0.5122
vn 0.2370 -0.5036 -0.8308
vn 0.7058 -0.6556 -0.2684
vn 0.7026 -0.6039 -0.3762
vn 0.6726 -0.3905 -0.6285
vn 0.9657 -0.2403 -0.0984
vn 0.9651 -0.2226 -0.1379
vn 0.9589 -0.1554 -0.2374
vn 0.9657 0.2403 0.0984
vn 0.9651 0.2231 0.1373
vn 0.9583 0.1654 0.2330
vn 0.7058 0.6555 0.2685
vn 0.7025 0.6072 0.3713
vn 0.6640 0.4622 0.5877
vn 0.2579 0.8940 0.3663
vn 0.2556 0.8257 0.5029
vn 0.2290 0.6316 0.7407
vn 0.9646 0.2545 -0.0692
vn 0.6997 0.6880 -0.1925
vn 0.2537 0.9302 -0.2651
vn -0.2537 0.9302 -0.2651
vn -0.6997 0.6880 -0.1925
vn -0.9646 0.2545 -0.0692
vn -0.9646 -0.2549 0.0674
vn -0.7002 -0.6911 0.1789
vn -0.2542 -0.9369 0.2398
vn 0.2542 -0.9369 0.2398
vn -0.2578 -0.8610 0.4385
vn -0.2562 -0.7722 0.5814
vn -0.2407 -0.4612 0.8540
vn -0.7055 -0.6315 0.3217
vn -0.7032 -0.5685 0.4270
vn -0.6787 -0.3554 0.6427
vn -0.9656 -0.2316 0.1180
vn -0.9652 -0.2095 0.1566
vn -0.9602 -0.1403 0.2414
vn -0.9656 0.2315 -0.1181
vn -0.9652 0.2099 -0.1560
vn -0.9597 0.1495 -0.2378
vn -0.7055 0.6312 -0.3223
vn -0.7030 0.5719 -0.4227
vn -0.6717 0.4222 -0.6088
vn -0.2577 0.8605 -0.4396
vn -0.2560 0.7783 -0.5733
vn -0.2339 0.5831 -0.7780
vn 0.2577 0.8605 -0.4396
vn 0.2560 0.7783 -0.5733
vn 0.2339 0.5831 -0.7780
vn 0.7055 0.6312 -0.3223
vn 0.7031 0.5719 -0.4227
vn 0.6717 0.4222 -0.6087
vn 0.9656 0.2315 -0.1181
vn 0.9652 0.2099 -0.1560
vn 0.9597 0.1495 -0.2378
vn 0.9656 -0.2316 0.1180
vn 0.9652 -0.2095 0.1566
vn 0.9602 -0.1403 0.2414
vn 0.7055 -0.6315 0.3217
vn 0.7032 -0.5685 0.4270
vn 0.6787 -0.3554 0.6427
vn 0.2577 -0.8610 0.4385
vn 0.2562 -0.7722 0.5814
vn 0.2407 -0.4612 0.8540
usemtl None
s off
f 1/1/1 2/2/1 4/3/1 3/4/1
f 3/4/2 4/3/2 6/5/2 5/6/2
f 5/6/3 6/5/3 8/7/3 7/8/3
f 7/8/4 8/7/4 10/9/4 9/10/4
f 9/10/5 10/9/5 12/11/5 11/12/5
f 11/12/6 12/11/6 14/13/6 13/14/6
f 13/14/7 14/13/7 16/15/7 15/16/7
f 15/16/8 16/15/8 18/17/8 17/18/8
f 17/18/9 18/17/9 20/19/9 19/20/9
f 19/20/10 20/19/10 22/21/10 21/22/10
f 53/23/11 55/24/11 126/25/11 129/26/11
f 21/22/12 22/21/12 24/27/12 23/28/12
f 23/28/13 24/27/13 2/29/13 1/30/13
f 1/31/14 3/32/14 5/33/14 7/34/14 9/35/14 11/36/14 13/37/14 15/38/14 17/39/14 19/40/14 21/41/14 23/42/14
f 25/43/15 26/44/15 28/45/15 27/46/15
f 27/46/2 28/45/2 30/47/2 29/48/2
f 29/48/3 30/47/3 32/49/3 31/50/3
f 31/50/4 32/49/4 34/51/4 33/52/4
f 33/52/5 34/51/5 36/53/5 35/54/5
f 35/54/16 36/53/16 38/55/16 37/56/16
f 37/56/17 38/55/17 40/57/17 39/58/17
f 39/58/8 40/57/8 42/59/8 41/60/8
f 41/60/9 42/59/9 44/61/9 43/62/9
f 43/62/10 44/61/10 46/63/10 45/64/10
f 89/65/18 88/66/18 162/67/18 165/68/18
f 45/64/12 46/63/12 48/69/12 47/70/12
f 47/70/19 48/69/19 26/71/19 25/72/19
f 25/73/14 27/74/14 29/75/14 31/76/14 33/77/14 35/78/14 37/79/14 39/80/14 41/81/14 43/82/14 45/83/14 47/84/14
f 49/85/20 50/86/20 52/87/20 51/88/20
f 51/88/21 52/87/21 54/89/21 53/23/21
f 53/23/22 54/89/22 56/90/22 55/24/22
f 55/24/23 56/90/23 58/91/23 57/92/23
f 57/92/24 58/91/24 60/93/24 59/94/24
f 59/94/25 60/93/25 62/95/25 61/96/25
f 61/96/26 62/95/26 64/97/26 63/98/26
f 63/98/27 64/97/27 66/99/27 65/100/27
f 65/100/28 66/99/28 68/101/28 67/102/28
f 67/102/29 68/101/29 70/103/29 69/104/29
f 56/90/22 54/89/22 75/105/22 76/106/22
f 69/104/30 70/103/30 72/107/30 71/108/30
f 71/108/31 72/107/31 50/109/31 49/110/31
f 51/88/32 53/23/32 129/26/32 130/111/32
f 76/106/22 75/105/22 87/112/22 88/66/22
f 72/107/30 70/103/30 83/113/30 84/114/30
f 54/89/21 52/87/21 74/115/21 75/105/21
f 70/103/29 68/101/29 82/116/29 83/113/29
f 68/101/28 66/99/28 81/117/28 82/116/28
f 66/99/27 64/97/27 80/118/27 81/117/27
f 64/97/26 62/95/26 79/119/26 80/118/26
f 62/95/25 60/93/25 78/120/25 79/119/25
f 60/93/24 58/91/24 77/121/24 78/120/24
f 58/91/23 56/90/23 76/106/23 77/121/23
f 50/109/31 72/107/31 84/114/31 73/122/31
f 52/87/20 50/86/20 73/123/20 74/115/20
f 90/124/33 89/65/33 165/68/33 166/125/33
f 83/113/29 82/116/29 94/126/29 95/127/29
f 80/118/26 79/119/26 91/128/26 92/129/26
f 77/121/23 76/106/23 88/66/23 89/65/23
f 84/114/30 83/113/30 95/127/30 96/130/30
f 74/115/20 73/123/20 85/131/20 86/132/20
f 81/117/27 80/118/27 92/129/27 93/133/27
f 78/120/24 77/121/24 89/65/24 90/124/24
f 73/122/31 84/114/31 96/130/31 85/134/31
f 75/105/21 74/115/21 86/132/21 87/112/21
f 82/116/28 81/117/28 93/133/28 94/126/28
f 79/119/25 78/120/25 90/124/25 91/128/25
f 55/24/34 57/92/34 123/135/34 126/25/34
f 57/92/35 59/94/35 120/136/35 123/135/35
f 59/94/36 61/96/36 117/137/36 120/136/36
f 61/96/37 63/98/37 114/138/37 117/137/37
f 63/98/38 65/100/38 111/139/38 114/138/38
f 65/100/39 67/102/39 108/140/39 111/139/39
f 67/102/40 69/104/40 105/141/40 108/140/40
f 69/104/41 71/108/41 102/142/41 105/141/41
f 71/108/42 49/110/42 99/143/42 102/142/42
f 49/85/43 51/88/43 130/111/43 99/144/43
f 102/142/44 99/143/44 98/145/44 101/146/44
f 101/146/45 98/145/45 97/147/45 100/148/45
f 100/148/46 97/147/46 2/29/46 24/27/46
f 105/141/47 102/142/47 101/146/47 104/149/47
f 104/149/48 101/146/48 100/148/48 103/150/48
f 103/150/49 100/148/49 24/27/49 22/21/49
f 108/140/50 105/141/50 104/149/50 107/151/50
f 107/151/51 104/149/51 103/150/51 106/152/51
f 106/152/52 103/150/52 22/21/52 20/19/52
f 111/139/53 108/140/53 107/151/53 110/153/53
f 110/153/54 107/151/54 106/152/54 109/154/54
f 109/154/55 106/152/55 20/19/55 18/17/55
f 114/138/56 111/139/56 110/153/56 113/155/56
f 113/155/57 110/153/57 109/154/57 112/156/57
f 112/156/58 109/154/58 18/17/58 16/15/58
f 117/137/59 114/138/59 113/155/59 116/157/59
f 116/157/60 113/155/60 112/156/60 115/158/60
f 115/158/61 112/156/61 16/15/61 14/13/61
f 120/136/62 117/137/62 116/157/62 119/159/62
f 119/159/63 116/157/63 115/158/63 118/160/63
f 118/160/64 115/158/64 14/13/64 12/11/64
f 123/135/65 120/136/65 119/159/65 122/161/65
f 122/161/66 119/159/66 118/160/66 121/162/66
f 121/162/67 118/160/67 12/11/67 10/9/67
f 126/25/68 123/135/68 122/161/68 125/163/68
f 125/163/69 122/161/69 121/162/69 124/164/69
f 124/164/70 121/162/70 10/9/70 8/7/70
f 129/26/71 126/25/71 125/163/71 128/165/71
f 128/165/72 125/163/72 124/164/72 127/166/72
f 127/166/73 124/164/73 8/7/73 6/5/73
f 130/111/74 129/26/74 128/165/74 131/167/74
f 131/167/75 128/165/75 127/166/75 132/168/75
f 132/168/76 127/166/76 6/5/76 4/3/76
f 99/144/77 130/111/77 131/167/77 98/169/77
f 98/169/78 131/167/78 132/168/78 97/170/78
f 97/170/79 132/168/79 4/3/79 2/2/79
f 88/66/80 87/112/80 159/171/80 162/67/80
f 87/112/81 86/132/81 156/172/81 159/171/81
f 86/132/82 85/131/82 153/173/82 156/172/82
f 85/134/83 96/130/83 150/174/83 153/175/83
f 96/130/84 95/127/84 147/176/84 150/174/84
f 95/127/85 94/126/85 144/177/85 147/176/85
f 94/126/86 93/133/86 141/178/86 144/177/86
f 93/133/87 92/129/87 138/179/87 141/178/87
f 92/129/88 91/128/88 135/180/88 138/179/88
f 91/128/89 90/124/89 166/125/89 135/181/89
f 138/179/90 135/180/90 134/182/90 137/183/90
f 137/183/91 134/182/91 133/184/91 136/185/91
f 136/185/92 133/184/92 26/71/92 48/69/92
f 141/178/93 138/179/93 137/183/93 140/186/93
f 140/186/94 137/183/94 136/185/94 139/187/94
f 139/187/95 136/185/95 48/69/95 46/63/95
f 144/177/96 141/178/96 140/186/96 143/188/96
f 143/188/97 140/186/97 139/187/97 142/189/97
f 142/189/98 139/187/98 46/63/98 44/61/98
f 147/176/99 144/177/99 143/188/99 146/190/99
f 146/190/100 143/188/100 142/189/100 145/191/100
f 145/191/101 142/189/101 44/61/101 42/59/101
f 150/174/102 147/176/102 146/190/102 149/192/102
f 149/192/103 146/190/103 145/191/103 148/193/103
f 148/193/104 145/191/104 42/59/104 40/57/104
f 153/175/105 150/174/105 149/192/105 152/194/105
f 152/194/106 149/192/106 148/193/106 151/195/106
f 151/195/107 148/193/107 40/57/107 38/55/107
f 156/172/108 153/173/108 152/196/108 155/197/108
f 155/197/109 152/196/109 151/198/109 154/199/109
f 154/199/110 151/198/110 38/55/110 36/53/110
f 159/171/111 156/172/111 155/197/111 158/200/111
f 158/200/112 155/197/112 154/199/112 157/201/112
f 157/201/113 154/199/113 36/53/113 34/51/113
f 162/67/114 159/171/114 158/200/114 161/202/114
f 161/202/115 158/200/115 157/201/115 160/203/115
f 160/203/116 157/201/116 34/51/116 32/49/116
f 165/68/117 162/67/117 161/202/117 164/204/117
f 164/204/118 161/202/118 160/203/118 163/205/118
f 163/205/119 160/203/119 32/49/119 30/47/119
f 166/125/120 165/68/120 164/204/120 167/206/120
f 167/206/121 164/204/121 163/205/121 168/207/121
f 168/207/122 163/205/122 30/47/122 28/45/122
f 135/181/123 166/125/123 167/206/123 134/208/123
f 134/208/124 167/206/124 168/207/124 133/209/124
f 133/209/125 168/207/125 28/45/125 26/44/125
