# Blender v3.0.1 OBJ File: 'blender_made_short_wire.blend'
# www.blender.org
mtllib short_buzz_wire.mtl
o Cylinder_Cylinder.001
v 0.000000 0.119586 -0.147137
v 0.000000 -0.030414 -0.147137
v 0.001500 0.119586 -0.147539
v 0.001500 -0.030414 -0.147539
v 0.002598 0.119586 -0.148637
v 0.002598 -0.030414 -0.148637
v 0.003000 0.119586 -0.150137
v 0.003000 -0.030414 -0.150137
v 0.002598 0.119586 -0.151637
v 0.002598 -0.030414 -0.151637
v 0.001500 0.119586 -0.152735
v 0.001500 -0.030414 -0.152735
v 0.000000 0.119586 -0.153137
v 0.000000 -0.030414 -0.153137
v -0.001500 0.119586 -0.152735
v -0.001500 -0.030414 -0.152735
v -0.002598 0.119586 -0.151637
v -0.002598 -0.030414 -0.151637
v -0.003000 0.119586 -0.150137
v -0.003000 -0.030414 -0.150137
v -0.002598 0.119586 -0.148637
v -0.002598 -0.030414 -0.148637
v -0.001500 0.119586 -0.147539
v -0.001500 -0.030414 -0.147539
v -0.000000 0.119586 0.152863
v -0.000000 -0.030414 0.152863
v 0.001500 0.119586 0.152461
v 0.001500 -0.030414 0.152461
v 0.002598 0.119586 0.151363
v 0.002598 -0.030414 0.151363
v 0.003000 0.119586 0.149863
v 0.003000 -0.030414 0.149863
v 0.002598 0.119586 0.148363
v 0.002598 -0.030414 0.148363
v 0.001500 0.119586 0.147265
v 0.001500 -0.030414 0.147265
v -0.000000 0.119586 0.146863
v -0.000000 -0.030414 0.146863
v -0.001500 0.119586 0.147265
v -0.001500 -0.030414 0.147265
v -0.002598 0.119586 0.148363
v -0.002598 -0.030414 0.148363
v -0.003000 0.119586 0.149863
v -0.003000 -0.030414 0.149863
v -0.002598 0.119586 0.151363
v -0.002598 -0.030414 0.151363
v -0.001500 0.119586 0.152461
v -0.001500 -0.030414 0.152461
v 0.000000 -0.042414 -0.122988
v 0.000000 -0.042414 0.027012
v 0.001500 -0.042816 -0.122988
v 0.001500 -0.042816 0.027012
v 0.002598 -0.043914 -0.122988
v 0.002598 -0.043914 0.027012
v 0.003000 -0.045414 -0.122988
v 0.003000 -0.045414 0.027012
v 0.002598 -0.046914 -0.122988
v 0.002598 -0.046914 0.027012
v 0.001500 -0.048012 -0.122988
v 0.001500 -0.048012 0.027012
v 0.000000 -0.048414 -0.122988
v 0.000000 -0.048414 0.027012
v -0.001500 -0.048012 -0.122988
v -0.001500 -0.048012 0.027012
v -0.002598 -0.046914 -0.122988
v -0.002598 -0.046914 0.027012
v -0.003000 -0.045414 -0.122988
v -0.003000 -0.045414 0.027012
v -0.002598 -0.043914 -0.122988
v -0.002598 -0.043914 0.027012
v -0.001500 -0.042816 -0.122988
v -0.001500 -0.042816 0.027012
v 0.000000 -0.042414 0.127012
v 0.001500 -0.042816 0.127012
v 0.002598 -0.043914 0.127012
v 0.003000 -0.045414 0.127012
v 0.002598 -0.046914 0.127012
v 0.001500 -0.048012 0.127012
v 0.000000 -0.048414 0.127012
v -0.001500 -0.048012 0.127012
v -0.002598 -0.046914 0.127012
v -0.003000 -0.045414 0.127012
v -0.002598 -0.043914 0.127012
v -0.001500 -0.042816 0.127012
v -0.000000 -0.033208 -0.144693
v -0.000000 -0.037567 -0.137528
v 0.000000 -0.041077 -0.128961
v -0.001500 -0.033499 -0.144971
v -0.001500 -0.037925 -0.137710
v -0.001500 -0.041461 -0.129080
v -0.002598 -0.034292 -0.145730
v -0.002598 -0.038904 -0.138208
v -0.002598 -0.042510 -0.129404
v -0.003000 -0.035375 -0.146768
v -0.003000 -0.040241 -0.138889
v -0.003000 -0.043943 -0.129847
v -0.002598 -0.036459 -0.147805
v -0.002598 -0.041577 -0.139570
v -0.002598 -0.045376 -0.130291
v -0.001500 -0.037252 -0.148564
v -0.001500 -0.042556 -0.140068
v -0.001500 -0.046425 -0.130615
v -0.000000 -0.037542 -0.148842
v -0.000000 -0.042914 -0.140250
v -0.000000 -0.046809 -0.130734
v 0.001500 -0.037252 -0.148564
v 0.001500 -0.042556 -0.140068
v 0.001500 -0.046425 -0.130615
v 0.002598 -0.036459 -0.147805
v 0.002598 -0.041577 -0.139570
v 0.002598 -0.045376 -0.130291
v 0.003000 -0.035375 -0.146768
v 0.003000 -0.040241 -0.138889
v 0.003000 -0.043943 -0.129847
v 0.002598 -0.034292 -0.145730
v 0.002598 -0.038904 -0.138208
v 0.002598 -0.042510 -0.129404
v 0.001500 -0.041461 -0.129080
v 0.001500 -0.037925 -0.137710
v 0.001500 -0.033499 -0.144971
v -0.000000 -0.037079 0.149284
v -0.000000 -0.042512 0.142071
v -0.000000 -0.046640 0.133964
v -0.001500 -0.036809 0.148986
v -0.001500 -0.042171 0.141859
v -0.001500 -0.046265 0.133820
v -0.002598 -0.036072 0.148173
v -0.002598 -0.041238 0.141279
v -0.002598 -0.045240 0.133426
v -0.003000 -0.035064 0.147061
v -0.003000 -0.039964 0.140487
v -0.003000 -0.043839 0.132888
v -0.002598 -0.034057 0.145950
v -0.002598 -0.038690 0.139695
v -0.002598 -0.042439 0.132351
v -0.001500 -0.033320 0.145136
v -0.001500 -0.037758 0.139116
v -0.001500 -0.041414 0.131957
v -0.000000 -0.033050 0.144838
v -0.000000 -0.037416 0.138904
v -0.000000 -0.041039 0.131813
v 0.001500 -0.033320 0.145136
v 0.001500 -0.037758 0.139116
v 0.001500 -0.041414 0.131957
v 0.002598 -0.034057 0.145950
v 0.002598 -0.038690 0.139696
v 0.002598 -0.042439 0.132351
v 0.003000 -0.035064 0.147061
v 0.003000 -0.039964 0.140487
v 0.003000 -0.043839 0.132888
v 0.002598 -0.036072 0.148173
v 0.002598 -0.041238 0.141279
v 0.002598 -0.045240 0.133426
v 0.001500 -0.046265 0.133820
v 0.001500 -0.042171 0.141859
v 0.001500 -0.036809 0.148986
vt 1.000000 0.500000
vt 1.000000 1.000000
vt 0.916667 1.000000
vt 0.916667 0.500000
vt 0.833333 1.000000
vt 0.833333 0.500000
vt 0.750000 1.000000
vt 0.750000 0.500000
vt 0.666667 1.000000
vt 0.666667 0.500000
vt 0.583333 1.000000
vt 0.583333 0.500000
vt 0.500000 1.000000
vt 0.500000 0.500000
vt 0.416667 1.000000
vt 0.416667 0.500000
vt 0.333333 1.000000
vt 0.333333 0.500000
vt 0.250000 1.000000
vt 0.250000 0.500000
vt 0.166667 1.000000
vt 0.166667 0.500000
vt 0.833333 0.500000
vt 0.750000 0.500000
vt 0.750000 0.625000
vt 0.833333 0.625000
vt 0.083333 1.000000
vt 0.083333 0.500000
vt 0.000000 1.000000
vt 0.000000 0.500000
vt 0.750000 0.490000
vt 0.870000 0.457846
vt 0.957846 0.370000
vt 0.990000 0.250000
vt 0.957846 0.130000
vt 0.870000 0.042154
vt 0.750000 0.010000
vt 0.630000 0.042154
vt 0.542154 0.130000
vt 0.510000 0.250000
vt 0.542154 0.370000
vt 0.630000 0.457846
vt 1.000000 0.500000
vt 1.000000 1.000000
vt 0.916667 1.000000
vt 0.916667 0.500000
vt 0.833333 1.000000
vt 0.833333 0.500000
vt 0.750000 1.000000
vt 0.750000 0.500000
vt 0.666667 1.000000
vt 0.666667 0.500000
vt 0.583333 1.000000
vt 0.583333 0.500000
vt 0.500000 1.000000
vt 0.500000 0.500000
vt 0.416667 1.000000
vt 0.416667 0.500000
vt 0.333333 1.000000
vt 0.333333 0.500000
vt 0.250000 1.000000
vt 0.250000 0.500000
vt 0.166667 1.000000
vt 0.166667 0.500000
vt 0.666667 1.000000
vt 0.750000 1.000000
vt 0.750000 1.000000
vt 0.708333 1.000000
vt 0.083333 1.000000
vt 0.083333 0.500000
vt 0.000000 1.000000
vt 0.000000 0.500000
vt 0.750000 0.490000
vt 0.870000 0.457846
vt 0.957846 0.370000
vt 0.990000 0.250000
vt 0.957846 0.130000
vt 0.870000 0.042154
vt 0.750000 0.010000
vt 0.630000 0.042154
vt 0.542154 0.130000
vt 0.510000 0.250000
vt 0.542154 0.370000
vt 0.630000 0.457846
vt 1.000000 0.500000
vt 1.000000 1.000000
vt 0.916667 1.000000
vt 0.916667 0.500000
vt 0.833333 1.000000
vt 0.750000 1.000000
vt 0.666667 1.000000
vt 0.666667 0.500000
vt 0.583333 1.000000
vt 0.583333 0.500000
vt 0.500000 1.000000
vt 0.500000 0.500000
vt 0.416667 1.000000
vt 0.416667 0.500000
vt 0.333333 1.000000
vt 0.333333 0.500000
vt 0.250000 1.000000
vt 0.250000 0.500000
vt 0.166667 1.000000
vt 0.166667 0.500000
vt 0.833333 1.000000
vt 0.083333 1.000000
vt 0.083333 0.500000
vt 0.000000 1.000000
vt 0.000000 0.500000
vt 0.916667 0.625000
vt 0.583333 1.000000
vt 0.666667 1.000000
vt 0.166667 1.000000
vt 0.083333 1.000000
vt 0.916667 1.000000
vt 0.250000 1.000000
vt 0.333333 1.000000
vt 0.416667 1.000000
vt 0.500000 1.000000
vt 0.000000 1.000000
vt 1.000000 1.000000
vt 0.666667 0.625000
vt 0.583333 0.625000
vt 0.500000 0.625000
vt 0.416667 0.625000
vt 0.333333 0.625000
vt 0.250000 0.625000
vt 0.166667 0.625000
vt 0.083333 0.625000
vt 0.000000 0.625000
vt 1.000000 0.625000
vt 0.000000 0.750000
vt 0.083333 0.750000
vt 0.000000 0.875000
vt 0.083333 0.875000
vt 0.166667 0.750000
vt 0.166667 0.875000
vt 0.250000 0.750000
vt 0.250000 0.875000
vt 0.333333 0.750000
vt 0.333333 0.875000
vt 0.416667 0.750000
vt 0.416667 0.875000
vt 0.500000 0.750000
vt 0.500000 0.875000
vt 0.583333 0.750000
vt 0.583333 0.875000
vt 0.666667 0.750000
vt 0.666667 0.875000
vt 0.750000 0.750000
vt 0.750000 0.875000
vt 0.833333 0.750000
vt 0.833333 0.875000
vt 0.916667 0.750000
vt 0.916667 0.875000
vt 1.000000 0.750000
vt 1.000000 0.875000
vt 0.791667 1.000000
vt 0.833333 1.000000
vt 0.875000 1.000000
vt 0.166667 1.000000
vt 0.125000 1.000000
vt 0.208333 1.000000
vt 0.250000 1.000000
vt 0.291667 1.000000
vt 0.333333 1.000000
vt 0.375000 1.000000
vt 0.625000 1.000000
vt 0.250000 1.000000
vt 0.250000 1.000000
vt 0.125000 1.000000
vt 0.166667 1.000000
vt 0.250000 1.000000
vt 0.208333 1.000000
vt 0.250000 1.000000
vt 0.250000 1.000000
vt 0.250000 1.000000
vt 0.291667 1.000000
vt 0.250000 1.000000
vt 0.333333 1.000000
vt 0.250000 1.000000
vt 0.375000 1.000000
vt 0.750000 1.000000
vt 0.750000 1.000000
vt 0.625000 1.000000
vt 0.666667 1.000000
vt 0.750000 1.000000
vt 0.708333 1.000000
vt 0.750000 1.000000
vt 0.750000 1.000000
vt 0.750000 1.000000
vt 0.791667 1.000000
vt 0.750000 1.000000
vt 0.833333 1.000000
vt 0.750000 1.000000
vt 0.875000 1.000000
vn 0.2588 0.0000 0.9659
vn 0.7071 0.0000 0.7071
vn 0.9659 0.0000 0.2588
vn 0.9659 -0.0000 -0.2588
vn 0.7071 -0.0000 -0.7071
vn 0.2588 -0.0000 -0.9659
vn -0.2588 -0.0000 -0.9659
vn -0.7071 -0.0000 -0.7071
vn -0.9659 -0.0000 -0.2588
vn -0.9659 0.0000 0.2588
vn 0.9651 0.2561 0.0555
vn -0.7071 0.0000 0.7071
vn -0.2588 0.0000 0.9659
vn 0.0000 1.0000 0.0000
vn 0.9646 -0.2549 0.0674
vn 0.2588 0.9659 -0.0000
vn 0.7071 0.7071 -0.0000
vn 0.9659 0.2588 -0.0000
vn 0.9659 -0.2588 0.0000
vn 0.7071 -0.7071 0.0000
vn 0.2588 -0.9659 0.0000
vn -0.2588 -0.9659 0.0000
vn -0.7071 -0.7071 0.0000
vn -0.9659 -0.2588 0.0000
vn -0.9659 0.2588 -0.0000
vn -0.7071 0.7071 -0.0000
vn -0.2588 0.9659 -0.0000
vn 0.7023 0.6952 0.1534
vn 0.7002 -0.6911 0.1789
vn 0.9651 -0.2563 -0.0545
vn 0.7025 -0.6965 -0.1458
vn 0.2558 -0.9465 -0.1966
vn -0.2558 -0.9465 -0.1966
vn -0.7025 -0.6965 -0.1458
vn -0.9651 -0.2563 -0.0545
vn -0.9651 0.2561 0.0555
vn -0.7023 0.6952 0.1534
vn -0.2555 0.9436 0.2106
vn 0.2555 0.9436 0.2106
vn -0.2579 0.8940 0.3663
vn -0.2556 0.8257 0.5029
vn -0.2290 0.6316 0.7407
vn -0.7058 0.6555 0.2685
vn -0.7025 0.6072 0.3713
vn -0.6640 0.4622 0.5877
vn -0.9657 0.2403 0.0984
vn -0.9651 0.2231 0.1373
vn -0.9583 0.1654 0.2330
vn -0.9657 -0.2403 -0.0984
vn -0.9651 -0.2226 -0.1379
vn -0.9589 -0.1554 -0.2374
vn -0.7058 -0.6556 -0.2684
vn -0.7027 -0.6039 -0.3762
vn -0.6726 -0.3905 -0.6285
vn -0.2579 -0.8942 -0.3660
vn -0.2558 -0.8199 -0.5122
vn -0.2370 -0.5036 -0.8308
vn 0.2579 -0.8942 -0.3660
vn 0.2558 -0.8199 -0.5122
vn 0.2370 -0.5036 -0.8308
vn 0.7058 -0.6556 -0.2684
vn 0.7026 -0.6039 -0.3762
vn 0.6726 -0.3905 -0.6285
vn 0.9657 -0.2403 -0.0984
vn 0.9651 -0.2226 -0.1379
vn 0.9589 -0.1554 -0.2374
vn 0.9657 0.2403 0.0984
vn 0.9651 0.2231 0.1373
vn 0.9583 0.1654 0.2330
vn 0.7058 0.6555 0.2685
vn 0.7025 0.6072 0.3713
vn 0.6640 0.4622 0.5877
vn 0.2579 0.8940 0.3663
vn 0.2557 0.8257 0.5029
vn 0.2290 0.6316 0.7407
vn 0.9646 0.2545 -0.0692
vn 0.6997 0.6880 -0.1925
vn 0.2537 0.9302 -0.2651
vn -0.2537 0.9302 -0.2651
vn -0.6997 0.6880 -0.1925
vn -0.9646 0.2545 -0.0692
vn -0.9646 -0.2549 0.0674
vn -0.7002 -0.6911 0.1789
vn -0.2542 -0.9369 0.2398
vn 0.2542 -0.9369 0.2398
vn -0.2577 -0.8610 0.4384
vn -0.2562 -0.7723 0.5813
vn -0.2407 -0.4612 0.8540
vn -0.7055 -0.6315 0.3217
vn -0.7032 -0.5685 0.4269
vn -0.6788 -0.3554 0.6426
vn -0.9656 -0.2316 0.1180
vn -0.9652 -0.2095 0.1566
vn -0.9602 -0.1404 0.2414
vn -0.9656 0.2315 -0.1181
vn -0.9652 0.2099 -0.1560
vn -0.9597 0.1495 -0.2378
vn -0.7055 0.6312 -0.3223
vn -0.7030 0.5719 -0.4227
vn -0.6717 0.4222 -0.6087
vn -0.2577 0.8605 -0.4395
vn -0.2560 0.7783 -0.5733
vn -0.2339 0.5832 -0.7780
vn 0.2577 0.8605 -0.4395
vn 0.2560 0.7783 -0.5733
vn 0.2339 0.5832 -0.7780
vn 0.7055 0.6312 -0.3223
vn 0.7030 0.5719 -0.4227
vn 0.6717 0.4222 -0.6087
vn 0.9656 0.2315 -0.1181
vn 0.9652 0.2099 -0.1560
vn 0.9597 0.1495 -0.2378
vn 0.9656 -0.2316 0.1180
vn 0.9652 -0.2095 0.1566
vn 0.9602 -0.1403 0.2414
vn 0.7055 -0.6315 0.3217
vn 0.7032 -0.5685 0.4269
vn 0.6787 -0.3554 0.6427
vn 0.2577 -0.8610 0.4384
vn 0.2562 -0.7723 0.5813
vn 0.2407 -0.4612 0.8540
usemtl None
s off
f 1/1/1 2/2/1 4/3/1 3/4/1
f 3/4/2 4/3/2 6/5/2 5/6/2
f 5/6/3 6/5/3 8/7/3 7/8/3
f 7/8/4 8/7/4 10/9/4 9/10/4
f 9/10/5 10/9/5 12/11/5 11/12/5
f 11/12/6 12/11/6 14/13/6 13/14/6
f 13/14/7 14/13/7 16/15/7 15/16/7
f 15/16/8 16/15/8 18/17/8 17/18/8
f 17/18/9 18/17/9 20/19/9 19/20/9
f 19/20/10 20/19/10 22/21/10 21/22/10
f 53/23/11 55/24/11 114/25/11 117/26/11
f 21/22/12 22/21/12 24/27/12 23/28/12
f 23/28/13 24/27/13 2/29/13 1/30/13
f 1/31/14 3/32/14 5/33/14 7/34/14 9/35/14 11/36/14 13/37/14 15/38/14 17/39/14 19/40/14 21/41/14 23/42/14
f 25/43/1 26/44/1 28/45/1 27/46/1
f 27/46/2 28/45/2 30/47/2 29/48/2
f 29/48/3 30/47/3 32/49/3 31/50/3
f 31/50/4 32/49/4 34/51/4 33/52/4
f 33/52/5 34/51/5 36/53/5 35/54/5
f 35/54/6 36/53/6 38/55/6 37/56/6
f 37/56/7 38/55/7 40/57/7 39/58/7
f 39/58/8 40/57/8 42/59/8 41/60/8
f 41/60/9 42/59/9 44/61/9 43/62/9
f 43/62/10 44/61/10 46/63/10 45/64/10
f 77/65/15 76/66/15 150/67/15 153/68/15
f 45/64/12 46/63/12 48/69/12 47/70/12
f 47/70/13 48/69/13 26/71/13 25/72/13
f 25/73/14 27/74/14 29/75/14 31/76/14 33/77/14 35/78/14 37/79/14 39/80/14 41/81/14 43/82/14 45/83/14 47/84/14
f 49/85/16 50/86/16 52/87/16 51/88/16
f 51/88/17 52/87/17 54/89/17 53/23/17
f 53/23/18 54/89/18 56/90/18 55/24/18
f 55/24/19 56/90/19 58/91/19 57/92/19
f 57/92/20 58/91/20 60/93/20 59/94/20
f 59/94/21 60/93/21 62/95/21 61/96/21
f 61/96/22 62/95/22 64/97/22 63/98/22
f 63/98/23 64/97/23 66/99/23 65/100/23
f 65/100/24 66/99/24 68/101/24 67/102/24
f 67/102/25 68/101/25 70/103/25 69/104/25
f 56/90/18 54/89/18 75/105/18 76/66/18
f 69/104/26 70/103/26 72/106/26 71/107/26
f 71/107/27 72/106/27 50/108/27 49/109/27
f 51/88/28 53/23/28 117/26/28 118/110/28
f 78/111/29 77/65/29 153/68/29 154/112/29
f 72/106/26 70/103/26 83/113/26 84/114/26
f 54/89/17 52/87/17 74/115/17 75/105/17
f 70/103/25 68/101/25 82/116/25 83/113/25
f 68/101/24 66/99/24 81/117/24 82/116/24
f 66/99/23 64/97/23 80/118/23 81/117/23
f 64/97/22 62/95/22 79/119/22 80/118/22
f 62/95/21 60/93/21 78/111/21 79/119/21
f 60/93/20 58/91/20 77/65/20 78/111/20
f 58/91/19 56/90/19 76/66/19 77/65/19
f 50/108/27 72/106/27 84/114/27 73/120/27
f 52/87/16 50/86/16 73/121/16 74/115/16
f 55/24/30 57/92/30 111/122/30 114/25/30
f 57/92/31 59/94/31 108/123/31 111/122/31
f 59/94/32 61/96/32 105/124/32 108/123/32
f 61/96/33 63/98/33 102/125/33 105/124/33
f 63/98/34 65/100/34 99/126/34 102/125/34
f 65/100/35 67/102/35 96/127/35 99/126/35
f 67/102/36 69/104/36 93/128/36 96/127/36
f 69/104/37 71/107/37 90/129/37 93/128/37
f 71/107/38 49/109/38 87/130/38 90/129/38
f 49/85/39 51/88/39 118/110/39 87/131/39
f 90/129/40 87/130/40 86/132/40 89/133/40
f 89/133/41 86/132/41 85/134/41 88/135/41
f 88/135/42 85/134/42 2/29/42 24/27/42
f 93/128/43 90/129/43 89/133/43 92/136/43
f 92/136/44 89/133/44 88/135/44 91/137/44
f 91/137/45 88/135/45 24/27/45 22/21/45
f 96/127/46 93/128/46 92/136/46 95/138/46
f 95/138/47 92/136/47 91/137/47 94/139/47
f 94/139/48 91/137/48 22/21/48 20/19/48
f 99/126/49 96/127/49 95/138/49 98/140/49
f 98/140/50 95/138/50 94/139/50 97/141/50
f 97/141/51 94/139/51 20/19/51 18/17/51
f 102/125/52 99/126/52 98/140/52 101/142/52
f 101/142/53 98/140/53 97/141/53 100/143/53
f 100/143/54 97/141/54 18/17/54 16/15/54
f 105/124/55 102/125/55 101/142/55 104/144/55
f 104/144/56 101/142/56 100/143/56 103/145/56
f 103/145/57 100/143/57 16/15/57 14/13/57
f 108/123/58 105/124/58 104/144/58 107/146/58
f 107/146/59 104/144/59 103/145/59 106/147/59
f 106/147/60 103/145/60 14/13/60 12/11/60
f 111/122/61 108/123/61 107/146/61 110/148/61
f 110/148/62 107/146/62 106/147/62 109/149/62
f 109/149/63 106/147/63 12/11/63 10/9/63
f 114/25/64 111/122/64 110/148/64 113/150/64
f 113/150/65 110/148/65 109/149/65 112/151/65
f 112/151/66 109/149/66 10/9/66 8/7/66
f 117/26/67 114/25/67 113/150/67 116/152/67
f 116/152/68 113/150/68 112/151/68 115/153/68
f 115/153/69 112/151/69 8/7/69 6/5/69
f 118/110/70 117/26/70 116/152/70 119/154/70
f 119/154/71 116/152/71 115/153/71 120/155/71
f 120/155/72 115/153/72 6/5/72 4/3/72
f 87/131/73 118/110/73 119/154/73 86/156/73
f 86/156/74 119/154/74 120/155/74 85/157/74
f 85/157/75 120/155/75 4/3/75 2/2/75
f 76/66/76 75/105/76 147/158/76 150/67/76
f 75/105/77 74/115/77 144/159/77 147/158/77
f 74/115/78 73/121/78 141/160/78 144/159/78
f 73/120/79 84/114/79 138/161/79 141/162/79
f 84/114/80 83/113/80 135/163/80 138/161/80
f 83/113/81 82/116/81 132/164/81 135/163/81
f 82/116/82 81/117/82 129/165/82 132/164/82
f 81/117/83 80/118/83 126/166/83 129/165/83
f 80/118/84 79/119/84 123/167/84 126/166/84
f 79/119/85 78/111/85 154/112/85 123/168/85
f 126/166/86 123/167/86 122/169/86 125/170/86
f 125/170/87 122/169/87 121/171/87 124/172/87
f 124/172/88 121/171/88 26/71/88 48/69/88
f 129/165/89 126/166/89 125/170/89 128/173/89
f 128/173/90 125/170/90 124/172/90 127/174/90
f 127/174/91 124/172/91 48/69/91 46/63/91
f 132/164/92 129/165/92 128/173/92 131/175/92
f 131/175/93 128/173/93 127/174/93 130/176/93
f 130/176/94 127/174/94 46/63/94 44/61/94
f 135/163/95 132/164/95 131/175/95 134/177/95
f 134/177/96 131/175/96 130/176/96 133/178/96
f 133/178/97 130/176/97 44/61/97 42/59/97
f 138/161/98 135/163/98 134/177/98 137/179/98
f 137/179/99 134/177/99 133/178/99 136/180/99
f 136/180/100 133/178/100 42/59/100 40/57/100
f 141/162/101 138/161/101 137/179/101 140/181/101
f 140/181/102 137/179/102 136/180/102 139/182/102
f 139/182/103 136/180/103 40/57/103 38/55/103
f 144/159/104 141/160/104 140/183/104 143/184/104
f 143/184/105 140/183/105 139/185/105 142/186/105
f 142/186/106 139/185/106 38/55/106 36/53/106
f 147/158/107 144/159/107 143/184/107 146/187/107
f 146/187/108 143/184/108 142/186/108 145/188/108
f 145/188/109 142/186/109 36/53/109 34/51/109
f 150/67/110 147/158/110 146/187/110 149/189/110
f 149/189/111 146/187/111 145/188/111 148/190/111
f 148/190/112 145/188/112 34/51/112 32/49/112
f 153/68/113 150/67/113 149/189/113 152/191/113
f 152/191/114 149/189/114 148/190/114 151/192/114
f 151/192/115 148/190/115 32/49/115 30/47/115
f 154/112/116 153/68/116 152/191/116 155/193/116
f 155/193/117 152/191/117 151/192/117 156/194/117
f 156/194/118 151/192/118 30/47/118 28/45/118
f 123/168/119 154/112/119 155/193/119 122/195/119
f 122/195/120 155/193/120 156/194/120 121/196/120
f 121/196/121 156/194/121 28/45/121 26/44/121
