# Blender v2.93.5 OBJ File: ''
# www.blender.org
mtllib robotiq_arg2f_85_outer_finger.mtl
o node_shape0.004
v 12.007134 -6.011513 -1.244464
v -11.990411 12.174863 48.338558
v -11.990568 5.590989 -2.484887
v 13.504464 1.930874 -1.879541
v 11.990699 12.113384 49.204662
v 13.537809 -2.068684 -1.795288
v 11.984004 0.465767 49.518978
v -12.004341 -6.042364 -0.874436
v -13.688873 6.396987 49.715923
v 13.798657 6.361614 49.390911
v 12.006870 3.936247 52.923725
v 11.998963 8.304827 52.790321
v -11.991946 1.173710 51.329826
v -12.002312 8.529077 52.948807
v -12.016113 2.569943 -5.569848
v -13.817070 -0.284782 -2.204391
v 12.024814 -1.988447 -6.120286
v -11.993974 -3.155155 -5.482102
v 11.994328 5.047975 -3.796385
vn 0.5067 -0.8337 -0.2196
vn 0.9543 -0.2962 0.0387
vn 0.4258 -0.8322 0.3552
vn -0.5334 0.8204 0.2060
vn -0.9834 -0.0235 -0.1799
vn -0.9774 0.0125 0.2110
vn -0.5369 0.7670 -0.3514
vn 0.9648 0.1793 -0.1923
vn 0.5186 0.8092 0.2762
vn 0.9670 0.1251 0.2220
vn 0.9689 -0.1949 -0.1522
vn 0.4933 0.6769 -0.5463
vn 0.9078 0.1698 0.3835
vn 0.9202 -0.1585 0.3579
vn -0.5347 -0.8285 -0.1661
vn -0.5143 -0.6445 0.5659
vn -0.9142 0.1561 0.3740
vn -0.9198 0.1701 -0.3535
vn -0.9206 -0.2062 -0.3315
vn 0.9245 -0.1891 -0.3311
vn 0.8813 0.1517 -0.4476
vn 0.9202 -0.2772 0.2764
vn 0.0097 0.3812 0.9244
vn -0.0295 0.3416 0.9394
vn 0.0155 -0.3558 0.9344
vn -0.0157 -0.4959 -0.8682
vn -0.0193 0.3811 -0.9243
vn 0.0295 -0.2825 -0.9588
usemtl None.012
s 1
f 1//1 10//2 7//3
f 2//4 16//5 9//6
f 2//4 3//7 16//5
f 4//8 5//9 10//10
f 1//1 6//11 10//2
f 5//9 4//8 19//12
f 12//13 11//14 10//10
f 10//10 5//9 12//13
f 8//15 13//16 9//6
f 8//15 9//6 16//5
f 14//17 9//6 13//16
f 16//5 3//7 15//18
f 16//5 18//19 8//15
f 14//17 2//4 9//6
f 17//20 4//8 6//11
f 17//21 19//12 4//8
f 6//11 1//1 17//20
f 11//14 7//22 10//10
f 16//5 15//18 18//19
f 13//16 8//15 7//3
f 7//3 8//15 1//1
f 12//23 14//24 11//25
f 14//24 12//23 5//9
f 19//12 3//7 5//9
f 2//4 5//9 3//7
f 13//16 11//25 14//24
f 5//9 2//4 14//24
f 8//15 18//26 1//1
f 3//7 19//12 15//27
f 6//11 4//8 10//10
f 15//27 19//12 17//28
f 18//26 17//28 1//1
f 13//16 7//3 11//25
f 17//28 18//26 15//27
