# Blender v2.93.5 OBJ File: ''
# www.blender.org
mtllib robotiq_arg2f_85_inner_knuckle.mtl
o node_shape0.003
v 11.962318 34.038177 48.888393
v 16.946489 18.512091 30.913677
v -12.002927 42.784657 46.336887
v -16.946516 18.511950 30.913511
v 12.324794 43.087917 41.697880
v -12.592418 42.369255 40.546581
v -19.610239 3.638045 -4.928548
v -19.520367 -6.576128 1.016489
v 19.559496 -5.456549 2.803867
v -11.914928 34.990837 49.821609
v 19.573332 2.153232 -6.333225
v 13.720709 38.653088 45.125645
v 11.998590 40.968254 48.615509
v -13.720709 38.653088 45.125648
v -19.500000 -2.085377 -5.982504
v 19.500000 -5.582624 -2.995579
vn -0.9282 0.3659 0.0682
vn -0.9592 0.1747 0.2222
vn -0.9192 0.3115 0.2412
vn -0.7026 -0.4836 0.5219
vn -0.4694 -0.1884 0.8627
vn -0.6621 0.4001 -0.6337
vn -0.6141 -0.7857 0.0746
vn 0.6581 -0.6924 0.2958
vn 0.6191 0.2023 -0.7588
vn 0.7399 -0.4494 0.5006
vn 0.1711 0.9578 -0.2309
vn 0.9529 0.3034 0.0044
vn 0.9685 0.1625 0.1886
vn 0.4842 -0.3324 0.8093
vn 0.9248 0.2033 0.3215
vn -0.1584 0.9059 -0.3927
vn -0.9756 0.2072 -0.0722
vn -0.6038 -0.3188 -0.7307
vn 0.6046 -0.6711 -0.4292
vn -0.0393 0.8733 0.4857
vn 0.0380 0.6163 0.7866
usemtl None.011
s 1
f 6//1 14//2 3//3
f 4//4 10//5 14//2
f 7//6 8//7 4//4
f 9//8 11//9 2//10
f 2//10 11//9 5//11
f 5//12 12//13 2//10
f 9//8 2//10 1//14
f 13//15 12//13 5//12
f 4//4 8//7 10//5
f 10//5 9//8 1//14
f 14//2 10//5 3//3
f 13//15 1//14 12//13
f 12//13 1//14 2//10
f 4//4 6//16 7//6
f 14//2 6//17 4//4
f 15//18 7//6 11//9
f 9//8 8//7 16//19
f 6//16 3//20 5//11
f 11//9 16//19 15//18
f 8//7 7//6 15//18
f 16//19 11//9 9//8
f 8//7 15//18 16//19
f 11//9 7//6 6//16
f 8//7 9//8 10//5
f 3//20 13//21 5//11
f 13//21 10//5 1//14
f 10//5 13//21 3//20
f 5//11 11//9 6//16
