# Blender v2.93.5 OBJ File: ''
# www.blender.org
mtllib robotiq_arg2f_85_base_link.mtl
o robotiq_arg2f_85_base_link
v -0.034919 0.031103 0.013604
v -0.035978 0.003115 0.010829
v -0.031310 0.003096 0.020965
v 0.007965 0.002445 0.036560
v -0.004831 0.003093 0.037387
v 0.000015 -0.002818 0.032563
v -0.035956 0.003132 -0.010905
v -0.034112 0.000010 -0.008686
v -0.035051 0.000030 0.002537
v -0.037688 0.003182 -0.000023
v -0.015751 0.003114 0.034115
v -0.023299 0.003098 0.029471
v -0.010000 0.090000 -0.015450
v -0.034919 0.031103 -0.013604
v -0.037432 0.031210 -0.001725
v -0.036660 0.031201 -0.007676
v -0.029735 0.000015 0.018642
v -0.037000 0.031228 0.006119
v 0.015492 0.003114 0.034230
v 0.023030 0.003089 0.029676
v 0.017743 0.000054 0.030455
v 0.024567 0.000010 -0.025248
v 0.021561 0.003071 -0.030887
v 0.002105 0.003081 -0.037502
v 0.011853 0.000007 -0.033333
v -0.005299 0.000005 -0.034950
v 0.011111 0.003104 -0.035890
v -0.023139 0.003093 -0.029597
v -0.024652 0.000021 -0.025062
v 0.035145 0.000027 -0.000408
v 0.034071 0.000020 0.008549
v 0.036927 0.003100 -0.006922
v 0.033013 0.000005 -0.012677
v 0.032349 0.003071 -0.019561
v -0.008177 0.058103 0.041140
v -0.029765 0.000011 -0.018638
v -0.031271 0.003113 -0.021024
v -0.017431 0.000011 -0.030487
v -0.024344 0.000038 0.025348
v -0.009083 0.058606 -0.040269
v -0.032318 0.030883 -0.019018
v -0.010000 0.090000 0.015450
v -0.009051 0.084003 0.022177
v -0.032318 0.030883 0.019018
v -0.027469 0.030566 0.025664
v 0.006475 0.055782 0.042295
v 0.028522 0.030680 0.024581
v 0.036665 0.031185 0.007678
v 0.037432 0.031209 0.001725
v 0.010000 0.090000 0.015450
v 0.032351 0.003010 0.019556
v 0.031140 0.000021 0.016305
v 0.037411 0.003096 0.004544
v -0.008842 0.060891 0.039243
v -0.000000 0.087667 0.020810
v -0.033293 0.000024 0.011196
v -0.027592 0.030572 -0.025516
v 0.006149 0.085024 0.023456
v 0.010000 0.090000 -0.015450
v 0.037002 0.031213 -0.006141
v 0.034401 0.031126 0.014958
v 0.026273 0.000033 0.023327
v 0.005886 0.059880 0.041487
v 0.007751 0.060849 0.040153
v -0.017120 0.000048 0.030696
v -0.006311 0.055322 0.042318
v -0.009051 0.084003 -0.022177
v 0.034912 0.031127 -0.013600
v -0.006289 0.060294 -0.041222
v 0.009066 0.083981 0.022181
v 0.009491 0.057991 0.040028
v -0.006375 0.055993 -0.042324
v 0.009028 0.058573 -0.040349
v 0.006145 0.056444 -0.042366
v -0.005938 0.060838 0.040957
v -0.006146 0.085069 0.023419
v -0.015656 0.003107 -0.034155
v -0.006865 0.003121 -0.036962
v 0.000000 0.087357 -0.021367
v 0.006143 0.085037 -0.023447
v 0.005700 0.060643 -0.041080
v 0.027264 0.030708 -0.025873
v 0.032230 0.030816 -0.019200
v -0.009541 0.000187 0.033940
v -0.005650 0.057617 0.042162
v -0.006139 0.085082 -0.023410
v 0.007054 0.059844 -0.041137
v 0.009042 0.083972 -0.022213
vn -0.9195 0.1809 0.3490
vn -0.9569 -0.0096 0.2904
vn -0.9083 -0.0071 0.4183
vn 0.1633 -0.7215 0.6729
vn 0.0190 -0.6228 0.7821
vn 0.0755 -0.6729 0.7358
vn -0.4999 -0.8650 0.0434
vn -0.7575 -0.6131 0.2243
vn -0.7696 -0.6385 0.0055
vn -0.4236 -0.0660 0.9034
vn -0.2706 -0.0002 0.9627
vn -0.5235 -0.0391 0.8511
vn -0.9667 0.2043 0.1541
vn -0.9808 0.1910 -0.0391
vn -0.9940 -0.0053 0.1089
vn -0.9171 0.1800 -0.3558
vn -0.9503 0.1628 -0.2653
vn -0.8446 0.3445 -0.4099
vn -0.8495 0.0062 0.5275
vn -0.8536 0.1595 0.4958
vn -0.7414 0.0851 0.6657
vn 0.4237 -0.0658 0.9034
vn 0.3815 0.1011 0.9188
vn 0.1842 -0.1043 0.9773
vn 0.6383 -0.0232 0.7694
vn 0.6319 -0.4883 -0.6019
vn 0.0443 -0.6990 -0.7137
vn 0.0682 -0.9786 -0.1942
vn -0.0720 -0.8663 -0.4943
vn 0.1411 -0.6100 -0.7797
vn -0.6070 -0.5491 -0.5745
vn -0.3517 -0.8671 -0.3527
vn -0.6536 -0.6219 -0.4313
vn -0.0167 -0.9996 0.0213
vn 0.5038 -0.8637 -0.0161
vn 0.2860 -0.9566 0.0552
vn 0.8212 -0.4876 -0.2963
vn 0.4952 -0.8483 -0.1873
vn 0.6211 -0.6919 -0.3680
vn -0.4800 -0.8618 0.1643
vn -0.4881 -0.8644 -0.1204
vn -0.7458 -0.6171 -0.2510
vn -0.4197 -0.8760 -0.2374
vn -0.1471 -0.9472 -0.2847
vn -0.6983 -0.0084 0.7158
vn -0.7279 -0.0155 0.6855
vn -0.6033 -0.5596 0.5682
vn -0.4383 -0.8607 0.2590
vn -0.2783 -0.9160 0.2890
vn -0.6535 -0.6351 0.4118
vn -0.7920 0.3573 -0.4951
vn -0.6492 0.2691 -0.7114
vn -0.8546 0.1587 -0.4945
vn -0.8380 0.3411 -0.4258
vn -0.9062 0.4228 0.0000
vn -0.8462 0.3453 0.4058
vn -0.5633 0.2140 0.7980
vn -0.6508 0.3938 0.6492
vn 0.0043 -0.0737 0.9973
vn -0.2474 -0.0971 0.9640
vn 0.3154 -0.6364 0.7039
vn 0.3537 -0.6265 0.6945
vn 0.4266 -0.5612 0.7093
vn 0.7715 0.1101 0.6267
vn 0.6754 0.2303 0.7006
vn 0.9661 0.2256 0.1254
vn 0.9814 0.1890 0.0337
vn 0.9101 0.3969 0.1188
vn 0.1645 -0.9695 -0.1818
vn 0.9820 -0.0113 -0.1886
vn 0.8518 -0.0143 -0.5236
vn 0.9207 0.1808 -0.3457
vn -0.9573 -0.0068 -0.2892
vn 0.2529 -0.9181 0.3053
vn 0.3686 -0.8170 0.4435
vn 0.4715 -0.6761 0.5662
vn 0.4219 -0.8326 0.3590
vn 0.6409 -0.6463 0.4142
vn 0.6188 -0.5362 0.5741
vn 0.8068 -0.5260 0.2690
vn 0.4542 -0.8646 0.2149
vn -0.8121 -0.5697 -0.1263
vn -0.9876 -0.0067 -0.1571
vn -0.9645 0.2323 -0.1255
vn -0.7254 -0.0154 -0.6881
vn -0.7415 0.0814 -0.6660
vn -0.6348 -0.0206 -0.7724
vn -0.9105 0.4105 0.0492
vn -0.9101 0.3970 -0.1187
vn 0.9062 0.4228 0.0000
vn 0.9681 0.2450 -0.0528
vn 0.9106 0.4104 -0.0496
vn 0.8443 0.3465 0.4087
vn 0.9041 0.1744 0.3902
vn 0.9420 0.1610 0.2943
vn 0.8615 -0.0143 0.5075
vn 0.3159 -0.0853 -0.9449
vn 0.1755 -0.1025 -0.9791
vn 0.3625 0.1258 -0.9235
vn 0.3744 -0.7165 -0.5885
vn 0.3620 -0.5404 -0.7595
vn -0.2805 0.0643 -0.9577
vn -0.0008 -0.0262 -0.9997
vn -0.0001 -0.0908 -0.9959
vn -0.9075 -0.0069 -0.4201
vn 0.7465 -0.6570 -0.1057
vn 0.7603 -0.6473 0.0532
vn 0.1814 -0.9585 0.2198
vn 0.2050 0.3787 0.9025
vn 0.5034 0.4364 0.7458
vn 0.2416 0.6639 0.7077
vn -0.4508 -0.6619 -0.5988
vn 0.8463 0.3453 -0.4057
vn 0.9578 0.1566 -0.2410
vn -0.8380 0.3411 0.4258
vn 0.0592 -0.1051 0.9927
vn 0.0009 0.8269 0.5624
vn 0.1097 0.8200 0.5618
vn 0.6710 0.4774 0.5674
vn 0.4894 0.6154 0.6179
vn 0.5979 -0.0370 -0.8007
vn 0.9991 -0.0015 -0.0422
vn 0.9996 0.0020 0.0270
vn -0.2432 0.6626 0.7084
vn -0.5654 0.5277 0.6339
vn -0.4891 0.6158 0.6177
vn -0.0613 0.8686 0.4916
vn -0.4224 -0.5814 -0.6954
vn -0.1849 -0.1018 -0.9775
vn -0.4294 -0.0638 -0.9008
vn -0.4249 -0.5826 0.6928
vn -0.3567 -0.6422 0.6785
vn -0.3395 -0.6285 0.6999
vn -0.2418 -0.9131 0.3282
vn -0.4459 -0.6610 0.6036
vn -0.2161 0.2464 -0.9448
vn 0.9512 -0.0137 0.3082
vn 0.7374 0.0784 -0.6709
vn 0.6634 0.2470 -0.7063
vn 0.8514 0.1591 -0.4999
vn -0.8506 0.0059 -0.5258
vn -0.1482 -0.6471 0.7479
vn -0.2082 -0.7177 0.6645
vn -0.1359 -0.7361 0.6631
vn -0.2100 0.4730 0.8557
vn -0.0607 -0.1001 -0.9931
vn -0.1657 -0.5924 -0.7884
vn 0.2441 0.6578 -0.7126
vn 0.0001 0.8092 -0.5875
vn 0.0616 0.8687 -0.4915
vn -0.2404 -0.6090 -0.7559
vn -0.2552 -0.6744 -0.6929
vn -0.1452 0.2145 0.9659
vn -0.2447 0.6611 -0.7093
vn -0.4872 0.5695 -0.6621
vn -0.4889 0.6159 -0.6177
vn -0.5321 0.4917 -0.6893
vn -0.0324 0.5381 -0.8423
vn 0.1185 0.4628 -0.8785
vn -0.2396 -0.5559 0.7960
vn -0.1156 0.8192 -0.5617
vn 0.3803 0.3862 -0.8404
vn 0.5646 0.5279 -0.6345
vn 0.8379 0.3411 -0.4262
vn 0.4884 0.6161 -0.6179
vn 0.0000 1.0000 0.0000
vn 0.0000 0.9169 0.3991
vn 0.0000 0.9130 -0.4079
usemtl None.009
s 1
f 1//1 2//2 3//3
f 4//4 5//5 6//6
f 9//7 2//8 10//9
f 11//10 66//11 12//12
f 18//13 15//14 10//15
f 14//16 16//17 13//18
f 3//19 44//20 1//1
f 45//21 44//20 3//19
f 19//22 46//23 4//24
f 46//23 19//22 20//25
f 23//26 34//26 22//26
f 24//27 25//28 26//29
f 25//30 24//30 27//30
f 28//31 29//32 37//33
f 6//34 30//35 31//36
f 32//37 33//38 34//39
f 2//8 9//7 56//40
f 18//13 10//15 2//2
f 37//33 8//41 7//42
f 36//43 8//41 37//33
f 38//44 26//29 6//34
f 12//45 45//21 3//46
f 3//47 39//47 12//47
f 17//48 39//49 3//50
f 8//41 6//34 9//7
f 67//51 40//52 41//53
f 14//16 67//54 41//53
f 13//18 67//54 14//16
f 13//55 15//55 42//55
f 18//13 2//2 1//1
f 18//13 1//1 42//56
f 35//57 44//20 45//21
f 44//20 35//57 54//58
f 46//59 66//11 5//60
f 19//61 21//62 20//63
f 47//64 71//65 20//25
f 48//66 49//67 50//68
f 22//69 33//38 6//34
f 32//70 34//71 68//72
f 14//16 7//73 16//17
f 6//34 33//38 30//35
f 21//74 62//75 20//76
f 62//77 51//78 20//79
f 51//80 31//80 53//80
f 31//36 52//81 6//34
f 8//41 10//82 7//42
f 8//41 9//7 10//9
f 16//17 7//73 10//83
f 15//14 16//84 10//15
f 66//11 35//57 12//45
f 12//45 35//57 45//21
f 56//40 17//48 3//50
f 2//8 56//40 3//50
f 37//85 57//86 28//87
f 28//87 57//86 40//52
f 15//14 18//13 42//88
f 16//84 15//14 13//89
f 4//4 21//62 19//61
f 59//90 50//90 49//90
f 49//67 60//91 59//92
f 50//93 61//94 48//95
f 51//96 47//64 20//25
f 27//97 24//98 74//99
f 25//28 23//100 22//69
f 6//34 25//28 22//69
f 23//101 25//101 27//101
f 72//102 74//103 24//104
f 7//73 14//16 37//105
f 30//35 33//38 32//106
f 53//107 31//36 30//35
f 62//77 52//81 51//78
f 52//81 31//36 51//78
f 21//74 6//108 62//75
f 63//109 64//110 58//111
f 36//43 37//33 29//32
f 38//44 29//32 28//112
f 38//44 6//34 29//32
f 6//34 36//43 29//32
f 68//72 59//113 60//114
f 42//56 1//1 43//115
f 4//24 46//23 5//116
f 71//65 46//23 20//25
f 55//117 58//111 50//118
f 58//111 70//119 50//120
f 61//94 71//65 47//64
f 70//119 61//94 50//93
f 64//110 71//65 70//119
f 34//39 33//38 22//69
f 6//34 26//29 25//28
f 27//97 74//99 23//121
f 32//70 60//114 53//122
f 60//91 49//67 53//123
f 68//72 60//114 32//70
f 32//106 53//107 30//35
f 62//77 6//34 52//81
f 4//4 6//6 21//62
f 54//58 76//124 43//125
f 43//125 76//124 42//126
f 42//127 76//124 55//117
f 38//128 28//128 77//128
f 72//102 78//129 77//130
f 40//52 72//102 28//87
f 17//48 56//40 6//34
f 12//131 65//132 11//133
f 39//49 65//134 12//135
f 65//134 39//49 6//34
f 36//43 6//34 8//41
f 40//52 69//136 72//102
f 40//52 57//86 41//53
f 1//1 44//20 43//115
f 43//125 44//20 54//58
f 70//119 71//65 61//94
f 70//119 58//111 64//110
f 53//137 61//94 51//96
f 48//95 61//94 53//137
f 34//71 23//121 82//138
f 74//99 73//139 23//121
f 23//121 73//139 82//138
f 68//72 34//71 83//140
f 14//16 41//53 37//141
f 5//142 84//143 6//144
f 75//145 76//124 54//58
f 72//102 24//146 78//129
f 26//29 78//147 24//27
f 72//102 77//130 28//87
f 6//34 56//40 9//7
f 39//49 17//48 6//34
f 80//148 79//149 59//150
f 82//138 83//140 34//71
f 6//144 84//143 65//132
f 11//10 5//60 66//11
f 35//57 75//145 54//58
f 78//147 26//29 77//151
f 38//44 77//152 26//29
f 85//153 35//57 66//11
f 86//154 67//155 13//156
f 40//52 67//51 69//157
f 86//154 69//158 67//155
f 37//141 41//53 57//86
f 69//136 74//103 72//102
f 74//99 69//158 81//159
f 83//140 82//138 73//139
f 11//160 84//143 5//142
f 65//132 84//143 11//133
f 79//149 86//154 13//161
f 51//96 61//94 47//64
f 49//67 48//66 53//123
f 80//148 87//162 81//159
f 88//163 83//140 73//139
f 88//164 68//72 83//140
f 68//72 88//164 59//113
f 85//153 75//145 35//57
f 75//145 85//153 63//109
f 74//99 87//162 73//139
f 85//153 66//11 46//59
f 63//109 85//153 46//23
f 74//99 81//159 87//162
f 87//162 88//163 73//139
f 59//165 88//163 80//148
f 63//109 46//23 71//65
f 63//109 71//65 64//110
f 88//163 87//162 80//148
f 42//166 59//166 13//166
f 50//166 59//166 42//166
f 50//167 42//127 55//117
f 59//150 79//149 13//168
f 69//158 80//148 81//159
f 86//154 80//148 69//158
f 63//109 58//111 75//145
f 58//111 76//124 75//145
f 55//117 76//124 58//111
f 80//148 86//154 79//149
